<svg width="714" height="136" viewBox="0 0 714 136" fill="none" xmlns="http://www.w3.org/2000/svg">
<path d="M621.18 16.9398H709.52V34.9998H621.18V16.9398ZM653.66 0.839844H674.38V25.4798H653.66V0.839844ZM653.66 70.9798H671.3V127.68H653.66V70.9798ZM631.12 69.4398H649.32V82.5998C649.32 86.5198 649.087 90.6732 648.62 95.0598C648.154 99.4465 647.174 103.926 645.68 108.5C644.28 112.98 642.18 117.32 639.38 121.52C636.58 125.72 632.8 129.64 628.04 133.28C627.107 131.88 625.8 130.34 624.12 128.66C622.44 126.98 620.667 125.347 618.8 123.76C616.934 122.173 615.254 120.913 613.76 119.98C618.987 116.153 622.814 112.047 625.24 107.66C627.667 103.273 629.254 98.8398 630 94.3598C630.747 89.8798 631.12 85.7265 631.12 81.8998V69.4398ZM644.84 26.8798L666.26 32.8998C664.487 36.1665 662.667 39.4332 660.8 42.6998C659.027 45.8732 657.3 48.9065 655.62 51.7998C653.94 54.5998 652.354 57.1198 650.86 59.3598L634.48 53.7598C635.787 51.2398 637.094 48.4398 638.4 45.3598C639.707 42.2798 640.92 39.1532 642.04 35.9798C643.254 32.7132 644.187 29.6798 644.84 26.8798ZM673.96 41.4398L689.64 33.3198C692.534 36.2132 695.474 39.4332 698.46 42.9798C701.447 46.4332 704.2 49.8865 706.72 53.3398C709.24 56.7932 711.2 60.0132 712.6 62.9998L695.52 72.0998C694.4 69.2065 692.674 65.9865 690.34 62.4398C688.007 58.8932 685.394 55.2998 682.5 51.6598C679.7 47.9265 676.854 44.5198 673.96 41.4398ZM621.6 48.1598C627.76 48.0665 634.807 47.9265 642.74 47.7398C650.767 47.5532 659.214 47.3665 668.08 47.1798C676.947 46.8998 685.767 46.6198 694.54 46.3398L694.12 63.4198C685.814 63.8865 677.46 64.3532 669.06 64.8198C660.66 65.2865 652.587 65.7065 644.84 66.0798C637.094 66.4532 630 66.7798 623.56 67.0598L621.6 48.1598ZM585.9 16.2398L596.82 1.25983C599.714 2.2865 602.747 3.54651 605.92 5.03984C609.187 6.53318 612.314 8.11983 615.3 9.79984C618.287 11.3865 620.714 12.9732 622.58 14.5598L610.82 31.2198C609.14 29.5398 606.9 27.8132 604.1 26.0398C601.3 24.1732 598.267 22.3998 595 20.7198C591.827 18.9465 588.794 17.4532 585.9 16.2398ZM577.36 54.4598L588.28 39.0598C591.174 39.9932 594.254 41.2065 597.52 42.6998C600.787 44.0998 603.914 45.6398 606.9 47.3198C609.98 48.9065 612.5 50.4932 614.46 52.0798L602.7 69.0198C601.02 67.4332 598.734 65.7532 595.84 63.9798C592.947 62.2065 589.867 60.4798 586.6 58.7998C583.427 57.1198 580.347 55.6732 577.36 54.4598ZM581.42 119.28C583.754 115.733 586.367 111.58 589.26 106.82C592.154 101.967 595.094 96.7865 598.08 91.2798C601.067 85.7732 603.867 80.2665 606.48 74.7598L622.02 87.4998C619.687 92.4465 617.26 97.4865 614.74 102.62C612.22 107.66 609.654 112.653 607.04 117.6C604.52 122.453 601.907 127.26 599.2 132.02L581.42 119.28ZM675.92 69.4398H694.54V111.58C694.54 113.633 694.634 114.846 694.82 115.22C694.914 115.407 695.054 115.593 695.24 115.78C695.427 115.873 695.614 115.92 695.8 115.92C695.987 115.92 696.174 115.92 696.36 115.92C696.64 115.92 696.874 115.92 697.06 115.92C697.247 115.92 697.434 115.873 697.62 115.78C697.9 115.686 698.087 115.547 698.18 115.36C698.46 115.173 698.74 114.007 699.02 111.86C699.114 110.74 699.16 109.06 699.16 106.82C699.254 104.487 699.347 101.826 699.44 98.8398C701.027 100.24 703.127 101.64 705.74 103.04C708.354 104.44 710.78 105.513 713.02 106.26C712.927 109.433 712.694 112.606 712.32 115.78C711.947 118.953 711.527 121.333 711.06 122.92C709.94 126.187 708.214 128.473 705.88 129.78C704.854 130.433 703.547 130.947 701.96 131.32C700.374 131.693 698.927 131.88 697.62 131.88C696.407 131.88 695.1 131.88 693.7 131.88C692.394 131.88 691.18 131.88 690.06 131.88C688.287 131.88 686.42 131.553 684.46 130.9C682.594 130.246 681.007 129.22 679.7 127.82C678.394 126.42 677.414 124.6 676.76 122.36C676.2 120.213 675.92 116.62 675.92 111.58V69.4398Z" fill="white"/>
<path d="M499.52 23.3799H567V42.6999H489.86L499.52 23.3799ZM518.42 54.3199H563.22V72.7999H518.42V54.3199ZM518.28 85.3999H565.04V104.3H518.28V85.3999ZM508.06 29.8199H529.06V133.84H508.06V29.8199ZM501.48 1.9599L521.08 7.13989C518.467 14.7932 515.387 22.4466 511.84 30.0999C508.293 37.6599 504.42 44.7532 500.22 51.3799C496.113 58.0066 491.913 63.7932 487.62 68.7399C486.593 67.4332 485.1 65.8932 483.14 64.1199C481.273 62.2532 479.36 60.4332 477.4 58.6599C475.44 56.8866 473.713 55.4866 472.22 54.4599C476.327 50.3532 480.2 45.4999 483.84 39.8999C487.48 34.2066 490.793 28.1399 493.78 21.6999C496.86 15.1666 499.427 8.58657 501.48 1.9599ZM462.56 1.3999L482.3 7.69989C479.313 15.6332 475.72 23.7066 471.52 31.9199C467.413 40.1332 462.933 47.8799 458.08 55.1599C453.227 62.4399 448.187 68.7866 442.96 74.1999C442.4 72.5199 441.467 70.2799 440.16 67.4799C438.853 64.6799 437.453 61.8799 435.96 59.0799C434.56 56.1866 433.253 53.8999 432.04 52.2199C436.147 48.1132 440.067 43.3532 443.8 37.9399C447.627 32.5266 451.127 26.6932 454.3 20.4399C457.567 14.1866 460.32 7.8399 462.56 1.3999ZM448.84 41.5799L469.42 20.9999V21.1399V133.7H448.84V41.5799Z" fill="white"/>
<path d="M299.6 14.7002H412.44V35.9802H299.6V14.7002ZM291.62 104.16H420.84V124.74H291.62V104.16ZM343.56 26.6002H366.94V112.28H343.56V26.6002Z" fill="white"/>
<path d="M188.72 25.6202V40.0402H234.22V25.6202H188.72ZM169.12 6.16016H255.08V59.3602H169.12V6.16016ZM150.5 69.3002H206.08V133.28H185.78V88.7602H169.68V133.84H150.5V69.3002ZM216.02 69.3002H273V133.28H252.56V88.7602H235.48V133.84H216.02V69.3002ZM158.9 107.66H194.32V127.12H158.9V107.66ZM225.12 107.66H263.06V127.12H225.12V107.66Z" fill="white"/>
<path d="M23.24 53.76H129.22V73.64H23.24V53.76ZM11.2 14H126.56V33.32H11.2V14ZM11.9 53.76H33.32V73.78C33.32 78.3533 33.0867 83.3467 32.62 88.76C32.1533 94.1733 31.36 99.7267 30.24 105.42C29.12 111.113 27.4867 116.573 25.34 121.8C23.1933 127.027 20.44 131.74 17.08 135.94C15.96 134.54 14.3267 132.86 12.18 130.9C10.0333 128.94 7.84 127.027 5.6 125.16C3.36 123.387 1.49333 122.08 0 121.24C3.73333 116.573 6.39333 111.44 7.98 105.84C9.66 100.24 10.7333 94.5933 11.2 88.9C11.6667 83.2067 11.9 78.0267 11.9 73.36V53.76ZM30.52 38.64L48.44 30.94C50.5867 33.6467 52.78 36.7733 55.02 40.32C57.3533 43.7733 59.0333 46.8533 60.06 49.56L41.02 58.1C40.18 55.3933 38.7333 52.22 36.68 48.58C34.72 44.94 32.6667 41.6267 30.52 38.64ZM90.16 32.34L113.26 39.48C110.087 43.4933 107.053 47.4133 104.16 51.24C101.36 54.9733 98.84 58.1933 96.6 60.9L80.36 54.46C81.5733 52.3133 82.7867 49.98 84 47.46C85.3067 44.94 86.4733 42.3733 87.5 39.76C88.62 37.0533 89.5067 34.58 90.16 32.34ZM52.08 4.90001L73.36 0C75.2267 2.33334 76.9533 5.04001 78.54 8.12001C80.22 11.1067 81.4333 13.7667 82.18 16.1L60.06 22.12C59.5 19.6933 58.4267 16.8933 56.84 13.72C55.3467 10.4533 53.76 7.51334 52.08 4.90001Z" fill="white"/>
</svg>
