<svg width="857" height="306" viewBox="0 0 857 306" fill="none" xmlns="http://www.w3.org/2000/svg">
<path d="M729.54 193.48H834.4V213.36H749.84V303.24H729.54V193.48ZM827.26 193.48H847.7V280.84C847.7 285.973 847.093 290.033 845.88 293.02C844.667 296.007 842.427 298.293 839.16 299.88C835.893 301.467 831.973 302.447 827.4 302.82C822.827 303.287 817.367 303.52 811.02 303.52C810.833 301.56 810.367 299.32 809.62 296.8C808.967 294.373 808.173 291.947 807.24 289.52C806.307 287 805.373 284.853 804.44 283.08C806.867 283.267 809.387 283.407 812 283.5C814.613 283.593 816.993 283.64 819.14 283.64C821.38 283.547 822.92 283.5 823.76 283.5C825.067 283.5 825.953 283.313 826.42 282.94C826.98 282.473 827.26 281.633 827.26 280.42V193.48ZM774.9 170.52L801.22 174.16C798.607 180.133 795.807 185.873 792.82 191.38C789.927 196.887 787.313 201.553 784.98 205.38L765.24 201.18C766.547 198.193 767.807 194.927 769.02 191.38C770.327 187.833 771.493 184.287 772.52 180.74C773.547 177.1 774.34 173.693 774.9 170.52ZM760.9 224.14H779.24V282.8H760.9V224.14ZM768.6 224.14H815.92V273.14H768.6V255.5H797.3V241.78H768.6V224.14Z" fill="white"/>
<path d="M580.3 191.8H708.26V211.26H580.3V191.8ZM627.62 226.8H679.98V245.98H627.62V226.8ZM672.42 226.8H693.42C693.42 226.8 693.374 227.36 693.28 228.48C693.28 229.507 693.234 230.673 693.14 231.98C693.14 233.287 693.047 234.407 692.86 235.34C692.114 247.753 691.227 257.973 690.2 266C689.174 274.027 688.007 280.327 686.7 284.9C685.394 289.473 683.76 292.833 681.8 294.98C679.467 297.593 676.947 299.367 674.24 300.3C671.627 301.327 668.547 302.073 665 302.54C662.107 302.82 658.467 302.96 654.08 302.96C649.694 302.96 645.167 302.913 640.5 302.82C640.407 299.833 639.66 296.427 638.26 292.6C636.86 288.867 635.18 285.6 633.22 282.8C637.98 283.173 642.554 283.407 646.94 283.5C651.42 283.593 654.734 283.64 656.88 283.64C658.467 283.64 659.774 283.547 660.8 283.36C661.92 283.08 662.947 282.567 663.88 281.82C665.28 280.7 666.494 278.133 667.52 274.12C668.547 270.013 669.434 264.32 670.18 257.04C671.02 249.76 671.72 240.707 672.28 229.88L672.42 226.8ZM619.22 203.56H642.04C641.667 211.12 641.06 218.727 640.22 226.38C639.474 233.94 638.167 241.407 636.3 248.78C634.434 256.153 631.68 263.247 628.04 270.06C624.494 276.78 619.78 283.08 613.9 288.96C608.02 294.747 600.6 299.973 591.64 304.64C590.147 301.84 588.047 298.76 585.34 295.4C582.634 292.133 579.927 289.427 577.22 287.28C585.34 283.453 591.967 279.113 597.1 274.26C602.234 269.407 606.247 264.18 609.14 258.58C612.034 252.887 614.134 247.007 615.44 240.94C616.84 234.78 617.727 228.573 618.1 222.32C618.567 215.973 618.94 209.72 619.22 203.56ZM632.8 169.54H653.94V199.22H632.8V169.54Z" fill="white"/>
<path d="M462.28 212.38H537.32V231.7H462.28V212.38ZM500.08 245.98H547.4V265.02H500.08V245.98ZM489.44 224H510.72V289.8L489.44 287.28V224ZM455.84 237.16L477.12 239.26C475.347 253.633 472.22 266.373 467.74 277.48C463.26 288.493 457.007 297.454 448.98 304.36C447.86 303.147 446.274 301.607 444.22 299.74C442.167 297.967 440.02 296.193 437.78 294.42C435.634 292.74 433.767 291.387 432.18 290.36C439.647 285.04 445.2 277.76 448.84 268.52C452.48 259.28 454.814 248.827 455.84 237.16ZM473.34 254.38C475.394 260.353 478.053 265.207 481.32 268.94C484.587 272.58 488.367 275.333 492.66 277.2C496.954 279.067 501.62 280.327 506.66 280.98C511.794 281.633 517.207 281.96 522.9 281.96C524.673 281.96 526.914 281.96 529.62 281.96C532.327 281.96 535.267 281.96 538.44 281.96C541.707 281.96 544.974 281.96 548.24 281.96C551.6 281.867 554.774 281.82 557.76 281.82C560.747 281.727 563.314 281.633 565.46 281.54C564.527 283.127 563.547 285.18 562.52 287.7C561.587 290.127 560.747 292.647 560 295.26C559.254 297.873 558.694 300.207 558.32 302.26H551.04H521.78C513.847 302.26 506.52 301.7 499.8 300.58C493.174 299.46 487.154 297.407 481.74 294.42C476.42 291.433 471.66 287.14 467.46 281.54C463.26 275.94 459.667 268.66 456.68 259.7L473.34 254.38ZM489.02 170.66H510.86V197.82H489.02V170.66ZM439.04 183.68H561.26V221.48H540.26V202.86H459.06V221.48H439.04V183.68Z" fill="white"/>
<path d="M290.08 185.5L306.32 175.84C308.934 178.92 311.687 182.374 314.58 186.2C317.567 189.934 320.367 193.62 322.98 197.26C325.687 200.9 327.834 204.167 329.42 207.06L311.78 218.26C310.474 215.367 308.56 212.054 306.04 208.32C303.614 204.494 301 200.574 298.2 196.56C295.4 192.547 292.694 188.86 290.08 185.5ZM288.26 284.9C290.594 281.167 293.114 276.78 295.82 271.74C298.527 266.7 301.28 261.334 304.08 255.64C306.974 249.854 309.68 244.067 312.2 238.28L327.6 250.6C325.454 255.827 323.167 261.1 320.74 266.42C318.407 271.647 315.98 276.827 313.46 281.96C311.034 287.094 308.514 292.134 305.9 297.08L288.26 284.9ZM335.86 190.4H412.02V241.22H392.56V209.58H335.86V190.4ZM330.12 232.12H422.24V251.58H330.12V232.12ZM386.12 238.56C388.92 249.294 393.4 258.767 399.56 266.98C405.72 275.1 414.167 281.074 424.9 284.9C423.407 286.207 421.774 287.934 420 290.08C418.32 292.227 416.687 294.42 415.1 296.66C413.607 298.9 412.347 300.954 411.32 302.82C403.2 299.274 396.34 294.607 390.74 288.82C385.14 283.034 380.474 276.22 376.74 268.38C373.1 260.54 370.02 251.814 367.5 242.2L386.12 238.56ZM359.8 170.24H381.36V220.36C381.36 226.147 380.94 232.12 380.1 238.28C379.354 244.347 378 250.367 376.04 256.34C374.174 262.314 371.514 268.147 368.06 273.84C364.7 279.534 360.36 284.9 355.04 289.94C349.814 294.98 343.467 299.554 336 303.66C335.067 302.167 333.714 300.347 331.94 298.2C330.167 296.147 328.3 294.094 326.34 292.04C324.38 290.08 322.56 288.447 320.88 287.14C328.067 283.967 334.04 280.374 338.8 276.36C343.56 272.254 347.34 267.914 350.14 263.34C353.034 258.674 355.134 253.914 356.44 249.06C357.84 244.207 358.727 239.354 359.1 234.5C359.567 229.554 359.8 224.794 359.8 220.22V170.24Z" fill="white"/>
<path d="M188.72 195.16V209.58H234.22V195.16H188.72ZM169.12 175.7H255.08V228.9H169.12V175.7ZM150.5 238.84H206.08V302.82H185.78V258.3H169.68V303.38H150.5V238.84ZM216.02 238.84H273V302.82H252.56V258.3H235.48V303.38H216.02V238.84ZM158.9 277.2H194.32V296.66H158.9V277.2ZM225.12 277.2H263.06V296.66H225.12V277.2Z" fill="white"/>
<path d="M23.24 223.3H129.22V243.18H23.24V223.3ZM11.2 183.54H126.56V202.86H11.2V183.54ZM11.9 223.3H33.32V243.32C33.32 247.893 33.0867 252.887 32.62 258.3C32.1533 263.713 31.36 269.267 30.24 274.96C29.12 280.653 27.4867 286.113 25.34 291.34C23.1933 296.567 20.44 301.28 17.08 305.48C15.96 304.08 14.3267 302.4 12.18 300.44C10.0333 298.48 7.84 296.567 5.6 294.7C3.36 292.927 1.49333 291.62 0 290.78C3.73333 286.113 6.39333 280.98 7.98 275.38C9.66 269.78 10.7333 264.133 11.2 258.44C11.6667 252.747 11.9 247.567 11.9 242.9V223.3ZM30.52 208.18L48.44 200.48C50.5867 203.187 52.78 206.313 55.02 209.86C57.3533 213.313 59.0333 216.393 60.06 219.1L41.02 227.64C40.18 224.933 38.7333 221.76 36.68 218.12C34.72 214.48 32.6667 211.167 30.52 208.18ZM90.16 201.88L113.26 209.02C110.087 213.033 107.053 216.953 104.16 220.78C101.36 224.513 98.84 227.733 96.6 230.44L80.36 224C81.5733 221.853 82.7867 219.52 84 217C85.3067 214.48 86.4733 211.913 87.5 209.3C88.62 206.593 89.5067 204.12 90.16 201.88ZM52.08 174.44L73.36 169.54C75.2267 171.873 76.9533 174.58 78.54 177.66C80.22 180.647 81.4333 183.307 82.18 185.64L60.06 191.66C59.5 189.233 58.4267 186.433 56.84 183.26C55.3467 179.993 53.76 177.053 52.08 174.44Z" fill="white"/>
<path d="M741.86 1.3999L763.14 5.73991C761.46 10.2199 759.64 14.6999 757.68 19.1799C755.813 23.6599 753.947 27.8599 752.08 31.7799C750.213 35.6999 748.44 39.1999 746.76 42.2799L728.98 37.7999C730.66 34.5332 732.293 30.7999 733.88 26.5999C735.56 22.3999 737.1 18.1066 738.5 13.7199C739.9 9.33324 741.02 5.22657 741.86 1.3999ZM721.98 29.5399C727.113 29.3532 732.947 29.1666 739.48 28.9799C746.107 28.6999 753.013 28.3732 760.2 27.9999C767.48 27.6266 774.713 27.2999 781.9 27.0199L781.76 44.6599C774.947 45.1266 768.087 45.6399 761.18 46.1999C754.273 46.6666 747.6 47.1332 741.16 47.5999C734.813 47.9732 728.933 48.3466 723.52 48.7199L721.98 29.5399ZM730.24 53.3399H774.76V69.8599H749V135.24H730.24V53.3399ZM764.96 53.3399H785.12V115.64C785.12 119.747 784.653 123.06 783.72 125.58C782.787 128.193 780.967 130.247 778.26 131.74C775.647 133.233 772.66 134.167 769.3 134.54C765.94 134.913 762.207 135.1 758.1 135.1C757.633 132.393 756.747 129.313 755.44 125.86C754.227 122.407 752.967 119.513 751.66 117.18C753.713 117.273 755.86 117.367 758.1 117.46C760.34 117.46 761.88 117.413 762.72 117.32C763.56 117.32 764.12 117.18 764.4 116.9C764.773 116.62 764.96 116.06 764.96 115.22V53.3399ZM738.64 74.6199H776.58V89.4599H738.64V74.6199ZM738.64 94.9199H776.58V109.76H738.64V94.9199ZM794.92 3.07991H815.22V42.6999C815.22 45.3132 815.5 46.9466 816.06 47.5999C816.713 48.1599 818.207 48.4399 820.54 48.4399C821.007 48.4399 821.753 48.4399 822.78 48.4399C823.807 48.4399 824.927 48.4399 826.14 48.4399C827.353 48.4399 828.473 48.4399 829.5 48.4399C830.62 48.4399 831.46 48.4399 832.02 48.4399C833.42 48.4399 834.447 48.1132 835.1 47.4599C835.847 46.8066 836.36 45.5466 836.64 43.6799C837.013 41.7199 837.293 38.8266 837.48 34.9999C838.88 36.0266 840.607 37.0532 842.66 38.0799C844.807 39.0132 847 39.8999 849.24 40.7399C851.573 41.4866 853.627 42.0466 855.4 42.4199C854.747 48.6732 853.627 53.5732 852.04 57.1199C850.453 60.5732 848.213 62.9999 845.32 64.3999C842.427 65.7999 838.647 66.4999 833.98 66.4999C833.233 66.4999 832.3 66.4999 831.18 66.4999C830.06 66.4999 828.847 66.4999 827.54 66.4999C826.233 66.4999 824.927 66.4999 823.62 66.4999C822.407 66.4999 821.24 66.4999 820.12 66.4999C819.093 66.4999 818.207 66.4999 817.46 66.4999C811.393 66.4999 806.727 65.7999 803.46 64.3999C800.193 62.9066 797.953 60.4799 796.74 57.1199C795.527 53.6666 794.92 48.9532 794.92 42.9799V3.07991ZM836.36 10.2199L849.1 24.9199C844.807 26.9732 840.233 28.9332 835.38 30.7999C830.62 32.6666 825.813 34.3932 820.96 35.9799C816.107 37.4732 811.393 38.8266 806.82 40.0399C806.447 38.0799 805.653 35.7466 804.44 33.0399C803.32 30.3332 802.247 28.0466 801.22 26.1799C805.42 24.7799 809.62 23.2399 813.82 21.5599C818.113 19.7866 822.173 17.9199 826 15.9599C829.92 13.9999 833.373 12.0866 836.36 10.2199ZM794.92 68.7399H815.08V111.02C815.08 113.633 815.407 115.267 816.06 115.92C816.807 116.573 818.347 116.9 820.68 116.9C821.147 116.9 821.893 116.9 822.92 116.9C824.04 116.9 825.207 116.9 826.42 116.9C827.727 116.9 828.94 116.9 830.06 116.9C831.18 116.9 832.02 116.9 832.58 116.9C834.073 116.9 835.193 116.527 835.94 115.78C836.687 114.94 837.247 113.4 837.62 111.16C837.993 108.827 838.273 105.42 838.46 100.94C840.607 102.433 843.407 103.88 846.86 105.28C850.407 106.68 853.533 107.707 856.24 108.36C855.587 115.08 854.467 120.353 852.88 124.18C851.293 128.007 849.053 130.667 846.16 132.16C843.267 133.747 839.393 134.54 834.54 134.54C833.793 134.54 832.813 134.54 831.6 134.54C830.48 134.54 829.267 134.54 827.96 134.54C826.653 134.54 825.3 134.54 823.9 134.54C822.593 134.54 821.38 134.54 820.26 134.54C819.14 134.54 818.207 134.54 817.46 134.54C811.487 134.54 806.867 133.793 803.6 132.3C800.333 130.9 798.047 128.473 796.74 125.02C795.527 121.66 794.92 117.04 794.92 111.16V68.7399ZM837.06 73.4999L850.36 88.3399C845.973 90.6732 841.26 92.8666 836.22 94.9199C831.273 96.9732 826.28 98.8866 821.24 100.66C816.2 102.433 811.3 104.02 806.54 105.42C806.073 103.46 805.233 101.08 804.02 98.2799C802.807 95.4799 801.687 93.1466 800.66 91.2799C805.047 89.7866 809.433 88.0599 813.82 86.0999C818.207 84.0466 822.407 81.9466 826.42 79.7999C830.433 77.6532 833.98 75.5532 837.06 73.4999ZM761.74 17.9199L779.1 11.4799C781.34 14.9332 783.487 18.6666 785.54 22.6799C787.687 26.5999 789.6 30.5199 791.28 34.4399C793.053 38.2666 794.313 41.7666 795.06 44.9399L776.3 52.2199C775.647 49.1399 774.573 45.6399 773.08 41.7199C771.587 37.7999 769.86 33.7866 767.9 29.6799C765.94 25.4799 763.887 21.5599 761.74 17.9199Z" fill="white"/>
<path d="M671.3 16.94H692.72V110.74C692.72 116.433 691.973 120.867 690.48 124.04C688.987 127.307 686.373 129.733 682.64 131.32C678.813 133.093 674.193 134.167 668.78 134.54C663.46 135.007 657.113 135.24 649.74 135.24C649.367 133.187 648.713 130.807 647.78 128.1C646.847 125.487 645.773 122.873 644.56 120.26C643.44 117.647 642.32 115.453 641.2 113.68C644.373 113.867 647.687 114.007 651.14 114.1C654.687 114.193 657.86 114.24 660.66 114.24C663.553 114.24 665.56 114.24 666.68 114.24C668.36 114.24 669.527 113.96 670.18 113.4C670.927 112.84 671.3 111.813 671.3 110.32V16.94ZM592.62 44.94H612.36V111.16H592.62V44.94ZM601.02 44.94H653.66V100.66H601.02V81.34H633.5V64.26H601.02V44.94ZM580.44 11.48H708.4V32.06H580.44V11.48Z" fill="white"/>
<path d="M456.4 55.16H487.34V73.64H456.4V55.16ZM479.64 55.16H499.38C499.38 55.16 499.38 55.6267 499.38 56.56C499.38 57.4 499.333 58.38 499.24 59.5C499.24 60.62 499.24 61.5533 499.24 62.3C499.147 71.82 498.96 79.7067 498.68 85.96C498.4 92.2133 497.933 97.1133 497.28 100.66C496.72 104.207 495.88 106.727 494.76 108.22C493.267 110.273 491.68 111.72 490 112.56C488.32 113.4 486.407 114.053 484.26 114.52C482.393 114.893 480.06 115.127 477.26 115.22C474.46 115.313 471.427 115.36 468.16 115.36C468.067 112.373 467.507 109.107 466.48 105.56C465.453 101.92 464.193 98.84 462.7 96.32C464.847 96.5067 466.853 96.6467 468.72 96.74C470.587 96.8333 472.08 96.88 473.2 96.88C474.133 96.88 474.927 96.74 475.58 96.46C476.233 96.18 476.84 95.7133 477.4 95.06C477.96 94.3133 478.38 92.68 478.66 90.16C478.94 87.5467 479.127 83.6733 479.22 78.54C479.407 73.4067 479.547 66.5933 479.64 58.1V55.16ZM523.18 12.18L535.5 0C537.927 1.21333 540.493 2.70667 543.2 4.48C546 6.16 548.66 7.88667 551.18 9.66C553.7 11.34 555.753 12.9733 557.34 14.56L544.18 28.14C542.78 26.5533 540.867 24.8267 538.44 22.96C536.107 21 533.587 19.0867 530.88 17.22C528.173 15.3533 525.607 13.6733 523.18 12.18ZM537.74 47.18L558.32 52.08C552.533 70.28 544.6 86.52 534.52 100.8C524.44 114.987 512.587 126.373 498.96 134.96C498.027 133.467 496.673 131.647 494.9 129.5C493.127 127.447 491.26 125.347 489.3 123.2C487.433 121.147 485.753 119.467 484.26 118.16C497.327 111.067 508.34 101.407 517.3 89.18C526.353 76.9533 533.167 62.9533 537.74 47.18ZM457.38 21.84H565.18V41.86H457.38V21.84ZM443.66 21.84H465.08V63.98C465.08 69.3933 464.893 75.3667 464.52 81.9C464.147 88.34 463.4 94.92 462.28 101.64C461.253 108.36 459.713 114.847 457.66 121.1C455.7 127.26 453.133 132.72 449.96 137.48C448.84 136.08 447.16 134.447 444.92 132.58C442.773 130.713 440.58 128.893 438.34 127.12C436.1 125.44 434.187 124.227 432.6 123.48C436.053 117.973 438.527 111.767 440.02 104.86C441.607 97.86 442.587 90.8133 442.96 83.72C443.427 76.5333 443.66 69.9067 443.66 63.84V21.84ZM499.8 2.52H521.22C520.94 13.16 521.173 23.8 521.92 34.44C522.667 44.9867 523.787 55.02 525.28 64.54C526.773 74.06 528.5 82.5067 530.46 89.88C532.513 97.2533 534.707 103.087 537.04 107.38C539.467 111.58 541.847 113.68 544.18 113.68C545.58 113.68 546.7 111.813 547.54 108.08C548.38 104.253 548.987 98.0933 549.36 89.6C551.693 91.9333 554.447 94.22 557.62 96.46C560.887 98.6067 563.873 100.193 566.58 101.22C565.553 110.273 564.06 117.227 562.1 122.08C560.233 126.84 557.713 130.06 554.54 131.74C551.367 133.513 547.353 134.4 542.5 134.4C537.273 134.4 532.56 132.58 528.36 128.94C524.253 125.393 520.613 120.447 517.44 114.1C514.267 107.66 511.56 100.193 509.32 91.7C507.173 83.2067 505.4 74.06 504 64.26C502.6 54.3667 501.573 44.1933 500.92 33.74C500.267 23.2867 499.893 12.88 499.8 2.52Z" fill="white"/>
<path d="M314.86 26.7399H412.58V46.6199H314.86V26.7399ZM309.26 68.0399H406.98V87.6399H309.26V68.0399ZM292.6 111.72H420V131.6H292.6V111.72ZM345.52 2.37988H366.8V121.52H345.52V2.37988ZM312.62 3.77988L333.76 8.53988C331.707 15.7265 329.233 22.8665 326.34 29.9599C323.447 37.0532 320.32 43.6799 316.96 49.8399C313.6 55.9065 310.1 61.1799 306.46 65.6599C305.153 64.4466 303.38 63.0932 301.14 61.5999C298.9 60.0132 296.613 58.4732 294.28 56.9799C291.947 55.4865 289.893 54.2732 288.12 53.3399C291.76 49.5132 295.12 44.9399 298.2 39.6199C301.28 34.2999 304.033 28.5599 306.46 22.3999C308.98 16.2399 311.033 10.0332 312.62 3.77988Z" fill="white"/>
<path d="M188.58 41.72V47.32H234.08V41.72H188.58ZM188.58 61.32V66.92H234.08V61.32H188.58ZM188.58 22.12V27.72H234.08V22.12H188.58ZM168.56 7H255.22V82.04H168.56V7ZM149.1 86.8H274.54V105.56H149.1V86.8ZM216.58 117.6L232.4 104.02C237.627 105.793 242.993 107.753 248.5 109.9C254.007 111.953 259.233 114.007 264.18 116.06C269.22 118.113 273.467 119.98 276.92 121.66L255.78 135.38C252.887 133.7 249.293 131.787 245 129.64C240.8 127.587 236.227 125.487 231.28 123.34C226.427 121.193 221.527 119.28 216.58 117.6ZM189.42 103.04L206.78 117.04C202.58 119.28 197.82 121.567 192.5 123.9C187.18 126.233 181.767 128.38 176.26 130.34C170.847 132.3 165.713 133.98 160.86 135.38C159.18 133.14 156.987 130.48 154.28 127.4C151.667 124.413 149.193 121.847 146.86 119.7C151.713 118.487 156.8 116.947 162.12 115.08C167.44 113.213 172.527 111.207 177.38 109.06C182.233 106.913 186.247 104.907 189.42 103.04Z" fill="white"/>
<path d="M11.2002 16.2402H124.04V37.5202H11.2002V16.2402ZM3.22021 105.7H132.44V126.28H3.22021V105.7ZM55.1602 28.1402H78.5402V113.82H55.1602V28.1402Z" fill="white"/>
</svg>
