<?xml version="1.0" encoding="utf-8"?>
<!-- Generator: Adobe Illustrator 24.3.0, SVG Export Plug-In . SVG Version: 6.00 Build 0)  -->
<svg version="1.1" id="图层_1" xmlns="http://www.w3.org/2000/svg" xmlns:xlink="http://www.w3.org/1999/xlink" x="0px" y="0px"
	 viewBox="0 0 1920 1080" style="enable-background:new 0 0 1920 1080;" xml:space="preserve">
<path d="M209.63,714.17c-0.38-2.88-0.95-5.31-0.97-7.75c-0.09-14.89-0.52-29.8,0.01-44.67c1.56-43.76,22.55-75.62,60.6-96.5
	c18.06-9.91,37.8-14.75,58.06-17.48c12.22-1.65,24.53-2.66,36.76-4.21c11.29-1.43,21.93-5.05,31.7-10.89
	c19.56-11.71,29.85-29.36,31.43-51.8c1.74-24.75-12.09-46.66-35.41-57.47c-8.31-3.85-17.06-6.18-26.23-6.65
	c-4.71-0.24-9.44-0.32-14.16-0.33c-31.6-0.06-63.19-0.08-94.79-0.09c-3.58,0-7.17,0.21-10.28,0.31c-3.11,3.81-2.12,7.58-2.13,11.08
	c-0.08,24.7-0.01,49.39-0.01,74.09c0,13.44-0.02,26.88-0.03,40.31c0,3.22,0,6.44,0,9.88c-13.2,7.53-24.31,16.74-32.63,28.62
	c-3.83-0.61-2.76-3.34-2.77-5.17c-0.13-19.25-0.13-38.5-0.13-57.75c-0.01-36.68,0.01-73.36,0.02-110.04c0-3.61,0-7.21,0-11.4
	c3.03-0.45,5.42-1.11,7.82-1.13c19.25-0.12,38.5-0.12,57.75-0.14c29.05-0.02,58.11,0.03,87.16-0.04c16.91-0.04,33.15,3.3,49,8.99
	c16.6,5.95,30,16.32,40.25,30.42c12.37,17,15.81,36.39,12.76,56.96c-2.48,16.7-9.97,30.89-21.98,42.83
	c-17.11,17.02-38.01,26.5-61.35,30.69c-12.47,2.24-25.2,3.08-37.83,4.44c-17.89,1.92-34.95,6.5-50.56,15.67
	c-24.96,14.65-40.02,36.29-45.39,64.71c-2.09,11.08-2.69,28.24-1.4,42.86c1.84,0.4,3.86,1.23,5.88,1.23
	c42.13,0.03,84.26,0.04,126.39-0.14c10.61-0.04,20.9-2.39,30.76-6.33c27.93-11.14,43.91-39.13,40.04-68.95
	c-2.3-17.7-10.75-31.29-25.09-41.52c-1.96-1.4-3.88-2.86-6.69-4.95c4.67-2.55,8.47-4.46,12.11-6.67c3.7-2.25,7.24-4.78,10.66-7.06
	c22.32,8.34,40.4,30.33,45.05,53.86c8.4,42.55-14.6,79.72-55.04,94.62c-15.46,5.7-31.56,8.27-48.05,8.26
	c-44.67-0.03-89.34-0.09-134.01-0.13c-9.44-0.01-18.89,0.08-28.33,0.02C215.73,714.76,212.9,714.4,209.63,714.17z"/>
<path d="M1142.71,395.55c7.81-0.78,14.38-0.7,20.25-0.26c0.91,1.04,1.21,1.27,1.36,1.58c0.16,0.31,0.24,0.7,0.24,1.05
	c0.01,103.83,0.02,207.67,0.01,311.5c0,0.72-0.06,1.46-0.26,2.15c-0.19,0.68-0.58,1.3-1.12,2.46c-5.88,1.78-12.22,0.71-18.46,0.57
	c-1.56-0.03-3.24-1.27-4.59-2.32c-1.39-1.07-2.47-2.58-3.64-3.93c-66.62-76.51-133.24-153.03-199.86-229.55
	c-7.77-8.92-15.51-17.87-23.31-26.76c-1.32-1.51-2.29-3.66-5.45-3.51c-1.13,2.45-0.72,5.34-0.73,8.09
	c-0.09,27.59-0.16,55.19-0.17,82.78c-0.01,53.74,0.03,107.47,0,161.21c0,4.28,0.46,8.65-0.77,12.65c-8.09,2.08-12.26,2.11-21.06,0.2
	c-0.27-0.92-0.81-1.92-0.82-2.92c-0.08-103.84-0.11-207.68-0.12-311.52c0-1,0.51-2.01,0.89-3.43c1.36-0.24,2.68-0.67,4.01-0.68
	c7.38-0.07,14.77-0.03,21.89-0.03c38.48,44.81,76.37,89.29,114.66,133.41c38.01,43.8,75.71,87.9,113.97,131.13
	c3.44-1.61,2.55-4.08,2.56-6.06c0.13-21.06,0.23-42.12,0.23-63.18c0.02-61-0.02-121.99-0.01-182.99
	C1142.4,403.64,1142.59,400.07,1142.71,395.55z"/>
<path d="M804.37,693.99c0,7.27,0,13.34,0,19.19c-3.72,2.54-7.45,1.59-10.99,1.59c-59.56,0.04-119.12,0-178.68-0.01
	c-11.26,0-22.52,0.1-33.77,0.08c-2.83-0.01-5.65-0.31-8.09-0.45c-0.69-1.23-1.34-1.84-1.34-2.44
	c-0.15-103.86-0.25-207.71-0.33-311.57c0-1.38,0.4-2.76,0.53-3.6c0.76-0.72,0.98-1.03,1.29-1.2c0.3-0.17,0.68-0.26,1.02-0.27
	c2.9-0.11,5.8-0.27,8.7-0.27c72.63,0.08,145.26,0.18,217.89,0.31c0.67,0,1.35,0.42,2.68,0.86c1.68,6,1.05,12.33,0.5,18.52
	c-3.66,2.5-7.39,1.49-10.92,1.5c-57.02,0.07-114.04,0.06-171.05,0.08c-4.67,0-9.33,0.15-14.36,0.24c-0.5,2.36-1.17,4.06-1.18,5.76
	c-0.03,37.77,0,75.54,0.06,113.31c0,1.05,0.42,2.1,0.61,3.04c2.93,2.51,6.32,1.71,9.52,1.72c47.57,0.07,95.15,0.07,142.72,0.15
	c3.9,0.01,7.9-0.47,12.18,1.12c0.84,6.28,0.47,12.26,0.1,18.47c-4.44,1.65-8.44,1.14-12.34,1.14c-42.49,0.05-84.98,0.05-127.47,0.07
	c-5.81,0-11.62,0-17.43,0.12c-2.13,0.04-4.24,0.42-6.67,0.68c-1.93,4.02-1.31,8.05-1.31,11.91c-0.06,34.86-0.03,69.73-0.02,104.59
	c0,4.34,0,8.68,0,12.29c2.87,3.28,5.92,2.62,8.73,2.63c18.52,0.06,37.04,0.05,55.57,0.05c40.31,0.01,80.63,0.01,120.94,0.05
	C795.41,693.67,799.36,693.86,804.37,693.99z"/>
<path d="M1412.58,395.57c11.32-0.93,22.39-0.7,33.91-0.25c0.34,3.19,0.82,5.65,0.82,8.11c0.02,70.09,0.05,140.19-0.09,210.28
	c-0.03,14.94-1.76,29.67-6.97,43.87c-9.43,25.69-26.62,44.33-52.14,53.74c-42.58,15.69-82.78,10.36-119.38-17.21
	c-6.33-4.77-12.65-9.64-18.8-16.3c2.11-0.61,3.32-1.15,4.56-1.28c1.8-0.18,3.65,0.11,5.44-0.09c9.69-1.07,18.77-0.18,25.9,7.5
	c23.03,14.21,47.73,19.31,74.06,12.03c18.38-5.08,31.88-16.84,40.66-33.83c6.26-12.11,9.7-25.03,10.46-38.6
	c0.47-8.33,0.6-16.7,0.6-25.05c0.02-63.56-0.05-127.11-0.04-190.67C1411.57,403.91,1411.05,399.91,1412.58,395.57z"/>
<path d="M1595.64,714.43c-1.22-12.35-0.91-309.7,0.22-317.89c7.27-1.89,20.26-2.22,33.35-0.85c2.68,3.03,1.63,6.81,1.64,10.3
	c0.09,54.48,0.13,108.97,0.13,163.45c0,39.95-0.05,79.91-0.13,119.86c-0.02,7.95-0.02,15.91-0.91,24.03
	c-5.96,2.57-11.8,1.27-17.45,1.46C1607.11,714.97,1601.68,715.29,1595.64,714.43z"/>
</svg>
