<svg id="图层_1" data-name="图层 1" xmlns="http://www.w3.org/2000/svg" viewBox="0 0 1442.63 345.3"><defs><style>.cls-1{stroke:#000;stroke-miterlimit:10;stroke-width:0.25px;}</style></defs><path d="M182.5,346l-80.41-.07-55.2-.06-9.73,0-9.8,0c-2.42,0-4.84,0-7.25,0s-4.58-.19-6.77-.38l-2.82-.23-8.15-.58-1.06-8.09c-.11-.83-.24-1.62-.37-2.38a42.33,42.33,0,0,1-.69-6.6c0-3.89-.07-7.76-.12-11.63C0,305.07-.13,293.76.27,282.54,1.93,236,24.06,200.67,66.05,177.63c17-9.35,36.58-15.26,61.53-18.63,6.76-.91,13.59-1.63,20.19-2.34,5.48-.58,11.15-1.18,16.65-1.88a71.42,71.42,0,0,0,27.83-9.55c16.5-9.88,25.2-24.25,26.58-43.92,1.43-20.28-9.93-38.56-29.64-47.69a60.84,60.84,0,0,0-22.53-5.74c-4-.2-8.36-.31-13.67-.32-33.54-.06-66.73-.08-94.77-.09l-2.44,0c0,.45,0,.91,0,1.39-.06,16.82,0,33.92,0,50.46q0,11.81,0,23.6,0,13.35,0,26.68V179l-5.05,2.88c-12.79,7.3-22.4,15.69-29.39,25.67l-3.59,5.12-6.17-1C9.5,211.31-.76,209,.35,196.72l0-.24C.24,177.26.24,157.73.24,138.84q0-41,0-81.95V8.78L8.79,7.51c.9-.13,1.74-.29,2.53-.44A37.27,37.27,0,0,1,18,6.27c16.6-.1,33.44-.12,49.74-.13h55.34q20,0,39.89,0h.32c17.09,0,34.12,3.14,52.08,9.58a94.06,94.06,0,0,1,45,33.95c13.28,18.26,18.18,39.89,14.56,64.31-2.75,18.51-11.1,34.81-24.82,48.45q-3.66,3.65-7.61,6.93l1.59.6c25.35,9.47,46,34.1,51.36,61.28,9.17,46.46-15.5,89-61.39,106A148.18,148.18,0,0,1,182.6,346ZM56,304.9H92.69c33.61,0,60.95-.05,86-.16a73.91,73.91,0,0,0,27.09-5.61c23.55-9.4,37.14-32.86,33.83-58.38-1.9-14.61-8.76-25.95-21-34.67-1.48-1.05-2.93-2.14-4.73-3.48L211.81,201,199.64,192a146.19,146.19,0,0,1-16.2,3.86c-9.49,1.7-19.08,2.62-28.36,3.52-3.39.32-6.78.65-10.17,1-18.23,1.95-33.46,6.65-46.57,14.35-22.46,13.18-35.75,32.13-40.62,57.94C56.13,281.09,55.49,293.31,56,304.9Z" transform="translate(0 -5.89)"/><path d="M11.22,335.31a67.12,67.12,0,0,1-1-7.75c-.09-14.89-.52-29.8,0-44.67,1.56-43.76,22.55-75.62,60.6-96.5,18.06-9.91,37.8-14.75,58.06-17.48,12.22-1.65,24.53-2.66,36.76-4.21a81.16,81.16,0,0,0,31.7-10.89c19.56-11.71,29.85-29.36,31.43-51.8,1.74-24.75-12.09-46.66-35.41-57.47a70.64,70.64,0,0,0-26.23-6.65c-4.71-.24-9.44-.32-14.16-.33q-47.4-.09-94.79-.09c-3.58,0-7.17.21-10.28.31-3.11,3.81-2.12,7.58-2.13,11.08-.08,24.7,0,49.39,0,74.09q0,20.16,0,40.31v9.88c-13.2,7.53-24.31,16.74-32.63,28.62-3.83-.61-2.76-3.34-2.77-5.17-.13-19.25-.13-38.5-.13-57.75q0-55,0-110V17.4c3-.45,5.42-1.11,7.82-1.13,19.25-.12,38.5-.12,57.75-.14,29.05,0,58.11,0,87.16,0,16.91,0,33.15,3.3,49,9A84.07,84.07,0,0,1,252.24,55.5c12.37,17,15.81,36.39,12.76,57-2.48,16.7-10,30.89-22,42.83-17.11,17-38,26.5-61.35,30.69-12.47,2.24-25.2,3.08-37.83,4.44-17.89,1.92-34.95,6.5-50.56,15.67-25,14.65-40,36.29-45.39,64.71-2.09,11.08-2.69,28.24-1.4,42.86,1.84.4,3.86,1.23,5.88,1.23q63.2,0,126.39-.14a83.53,83.53,0,0,0,30.76-6.33c27.93-11.14,43.91-39.13,40-69-2.3-17.7-10.75-31.29-25.09-41.52-2-1.4-3.88-2.86-6.69-4.95,4.67-2.55,8.47-4.46,12.11-6.67s7.24-4.78,10.66-7.06c22.32,8.34,40.4,30.33,45.05,53.86,8.4,42.55-14.6,79.72-55,94.62A137.65,137.65,0,0,1,182.51,336q-67,0-134-.13c-9.44,0-18.89.08-28.33,0C17.32,335.9,14.49,335.54,11.22,335.31Z" transform="translate(0 -5.89)"/><path class="cls-1" d="M956.77,346.19c-2.22,0-4.35-.13-6.42-.25-1.49-.09-2.9-.17-4.26-.2-4.93-.09-8.69-3-10.5-4.42a26.71,26.71,0,0,1-4.35-4.44c-.24-.28-.47-.57-.71-.84L730.69,106.51l-7.77-8.93-4.23-4.87c-.07,26.29-.11,47.66-.12,67.84v66.83q0,47.19,0,94.38c0,.83,0,1.68,0,2.52.09,3.92.19,8.37-1.25,13.06l-1.65,5.35-5.42,1.4a49.88,49.88,0,0,1-13,1.91,57.76,57.76,0,0,1-12.64-1.62l-5.8-1.26-1.65-5.62-.1-.27a15.53,15.53,0,0,1-1.15-5.45c-.07-90.71-.11-189.7-.12-311.62a15.72,15.72,0,0,1,1-5.24c.07-.24.16-.49.24-.77L678.68,8,685,6.88c.29,0,.57-.11.86-.18a22.91,22.91,0,0,1,4.82-.65c3.46,0,6.94,0,10.4,0h16.15l3,3.49Q737.64,29.84,755,50.09c26.13,30.5,53.14,62,79.83,92.79q17.26,19.89,34.47,39.83c21.14,24.48,42.87,49.64,64.61,74.4.07-14,.13-29.85.13-45.79q0-50.17,0-100.36,0-41.31,0-82.63c0-2.5.08-5,.17-7.67.05-1.33.09-2.73.13-4.23l.24-8.81,8.77-.88A125.35,125.35,0,0,1,955.9,6.1c3.11,0,6.18.12,9.4.36l4.08.31,2.69,3.08.62.68a12,12,0,0,1,3.46,8.53q0,155.75,0,311.5a17.29,17.29,0,0,1-.65,4.9,17.65,17.65,0,0,1-1.29,3.17c-.11.22-.24.47-.38.77L972,343.45l-4.27,1.29A36.72,36.72,0,0,1,956.77,346.19Z" transform="translate(0 -5.89)"/><path class="cls-1" d="M944.3,16.69a114,114,0,0,1,20.25-.26A12.48,12.48,0,0,1,965.91,18a2.38,2.38,0,0,1,.24,1q0,155.75,0,311.5a7.77,7.77,0,0,1-.26,2.15,19.85,19.85,0,0,1-1.12,2.46c-5.88,1.78-12.22.71-18.46.57-1.56,0-3.24-1.27-4.59-2.32a27.26,27.26,0,0,1-3.64-3.93L738.23,99.94c-7.77-8.92-15.51-17.87-23.31-26.76-1.32-1.51-2.29-3.66-5.45-3.51-1.13,2.45-.72,5.34-.73,8.09q-.13,41.38-.17,82.78,0,80.61,0,161.21c0,4.28.46,8.65-.77,12.65-8.09,2.08-12.26,2.11-21.06.2a11.33,11.33,0,0,1-.82-2.92q-.12-155.76-.12-311.52a15.83,15.83,0,0,1,.89-3.43,24.9,24.9,0,0,1,4-.68c7.38-.07,14.77,0,21.89,0C751.07,60.83,789,105.31,827.25,149.43c38,43.8,75.71,87.9,114,131.13,3.44-1.61,2.55-4.08,2.56-6.06q.19-31.59.23-63.18,0-91.5,0-183C944,24.78,944.18,21.21,944.3,16.69Z" transform="translate(0 -5.89)"/><path d="M599.6,346.09c-1.07,0-2.05-.06-2.92-.11-.57,0-1.15-.07-1.71-.07q-28.66,0-57.36,0H465.33l-49,0q-7.65,0-15.29,0t-15.36.05H382.5c-2.32,0-4.51-.17-6.44-.31l-2.21-.15-5.46-.32-2.68-4.77c-.1-.18-.21-.32-.29-.45a11.86,11.86,0,0,1-2.33-6.89c-.13-91.19-.24-190.2-.33-311.56a22.78,22.78,0,0,1,.58-4.81c0-.14.06-.27.08-.39l.52-3.38,2.47-2.29.41-.4a12,12,0,0,1,8.49-3.8l1.95-.08c2.27-.1,4.62-.2,7-.2,78.11.09,149.38.19,217.91.31a13.47,13.47,0,0,1,5.12,1.11c.19.08.41.17.68.26l5,1.67,1.44,5.13c2.12,7.59,1.46,15,.88,21.57l-.47,5.23L611,44.13a20.15,20.15,0,0,1-11.75,3.44c-1.11,0-2.13-.07-3-.12-.65,0-1.26-.08-1.73-.08q-62.28.08-124.49.07H423.4c-1.83,0-3.67,0-5.54.06,0,31.41,0,65.54.05,104H418q33.47.06,66.78.07,38,0,76,.08h.1l1.9,0c.79,0,1.59,0,2.39,0a31.58,31.58,0,0,1,11.25,1.81l5.63,2.09.8,6c1,7.16.57,13.78.18,20.18l-.4,6.72-6.11,2.27a31.55,31.55,0,0,1-11.29,1.84c-.86,0-1.71,0-2.55,0-.66,0-1.32,0-2,0q-45.13.06-90.3.06H433.24c-5.08,0-10.32,0-15.46.09v.05c0,.86.05,1.72.05,2.57-.05,28.65,0,57.77,0,85.93V304.7c14.11,0,28.32,0,40.6,0h37.38q48.63,0,97.27,0c2.71,0,5.37.1,8.19.2l5,.15,9.74.25V339.6l-4.36,3A20.58,20.58,0,0,1,599.6,346.09Z" transform="translate(0 -5.89)"/><path d="M606,315.13v19.19c-3.72,2.54-7.45,1.59-11,1.59q-89.34.06-178.68,0c-11.26,0-22.52.1-33.77.08-2.83,0-5.65-.31-8.09-.45-.69-1.23-1.34-1.84-1.34-2.44q-.22-155.79-.33-311.57a21.09,21.09,0,0,1,.53-3.6,9.81,9.81,0,0,1,1.29-1.2,2.28,2.28,0,0,1,1-.27c2.9-.11,5.8-.27,8.7-.27q108.95.12,217.89.31a11.69,11.69,0,0,1,2.68.86c1.68,6,1,12.33.5,18.52-3.66,2.5-7.39,1.49-10.92,1.5q-85.53.1-171.05.08c-4.67,0-9.33.15-14.36.24-.5,2.36-1.17,4.06-1.18,5.76q0,56.65.06,113.31a15.45,15.45,0,0,0,.61,3c2.93,2.51,6.32,1.71,9.52,1.72q71.35.1,142.72.15c3.9,0,7.9-.47,12.18,1.12.84,6.28.47,12.26.1,18.47-4.44,1.65-8.44,1.14-12.34,1.14q-63.74.07-127.47.07c-5.81,0-11.62,0-17.43.12-2.13,0-4.24.42-6.67.68-1.93,4-1.31,8-1.31,11.91q-.09,52.29,0,104.59v12.29c2.87,3.28,5.92,2.62,8.73,2.63q27.78.09,55.57.05,60.46,0,120.94.05C597,314.81,601,315,606,315.13Z" transform="translate(0 -5.89)"/><path d="M1143.57,351.18c-28,0-54.65-9.4-79.27-27.94-7.14-5.38-13.57-10.41-20.13-17.5l-11-11.9,15.56-4.49c.61-.18,1.13-.35,1.6-.5a21.22,21.22,0,0,1,4.7-1.12,24.13,24.13,0,0,1,2.46-.12c.51,0,1,0,1.52,0l1,0a1.83,1.83,0,0,0,.42,0,66.17,66.17,0,0,1,7.28-.43c10.74,0,19.27,3.28,26,10,14.54,8.76,29.35,13.2,44,13.2h0a79.14,79.14,0,0,0,21.07-2.94c15.15-4.18,26.74-13.87,34.45-28.78a85.11,85.11,0,0,0,9.35-34.57c.4-7.06.59-14.84.59-24.49q0-50.37,0-100.74,0-45,0-89.93c0-.69,0-1.4,0-2.1a35.2,35.2,0,0,1,1.62-13.47l2.15-6.11,6.46-.53c5.54-.46,11.37-.68,17.82-.68,6.22,0,12.23.2,17.3.4l8.64.34.91,8.59c.11,1,.22,1.86.33,2.7a48.45,48.45,0,0,1,.55,6.47V35.92c0,65.21,0,132.63-.09,199,0,18-2.52,33.49-7.58,47.3-10.78,29.36-30.32,49.44-58.07,59.68A143.69,143.69,0,0,1,1143.57,351.18Z" transform="translate(0 -5.89)"/><path d="M1214.17,16.71a277.73,277.73,0,0,1,33.91-.25c.34,3.19.82,5.65.82,8.11q0,105.14-.09,210.28c0,14.94-1.76,29.67-7,43.87-9.43,25.69-26.62,44.33-52.14,53.74-42.58,15.69-82.78,10.36-119.38-17.21-6.33-4.77-12.65-9.64-18.8-16.3a32.21,32.21,0,0,1,4.56-1.28c1.8-.18,3.65.11,5.44-.09,9.69-1.07,18.77-.18,25.9,7.5,23,14.21,47.73,19.31,74.06,12,18.38-5.08,31.88-16.84,40.66-33.83a94.76,94.76,0,0,0,10.46-38.6c.47-8.33.6-16.7.6-25.05q0-95.34,0-190.67C1213.16,25.05,1212.64,21.05,1214.17,16.71Z" transform="translate(0 -5.89)"/><path d="M1406.06,346.14a70.72,70.72,0,0,1-10.24-.67l-7.77-1.1-.77-7.82c-1.2-12.13-1-311.42.26-320.23l.92-6.63L1394.93,8c6.39-1.66,14.52-2,20.21-2a161.53,161.53,0,0,1,16.7.89l3.87.4,2.58,2.92c4.84,5.47,4.44,11.81,4.23,15.21,0,.64-.08,1.24-.08,1.68.09,52.67.13,107.67.13,163.48,0,36.75,0,76-.13,119.88V311a227.34,227.34,0,0,1-1,24.58l-.64,5.79-5.34,2.31a32.74,32.74,0,0,1-13.11,2.44c-1.39,0-2.69-.05-4-.1-1.09-.05-2.13-.09-3.09-.09l-.91,0-1.65.06C1410.62,346.06,1408.4,346.14,1406.06,346.14Z" transform="translate(0 -5.89)"/><path d="M1397.23,335.57c-1.22-12.35-.91-309.7.22-317.89,7.27-1.89,20.26-2.22,33.35-.85,2.68,3,1.63,6.81,1.64,10.3q.13,81.72.13,163.45,0,59.92-.13,119.86a223.52,223.52,0,0,1-.91,24c-6,2.57-11.8,1.27-17.45,1.46C1408.7,336.11,1403.27,336.43,1397.23,335.57Z" transform="translate(0 -5.89)"/></svg>