<svg width="28" height="28" viewBox="0 0 28 28" fill="none" xmlns="http://www.w3.org/2000/svg">
<path d="M11.7249 19.95C11.5499 19.95 11.3749 19.88 11.2349 19.74C10.9549 19.46 10.9549 19.0225 11.2349 18.7425L16.4849 13.4925C16.7649 13.2125 17.2024 13.2125 17.4824 13.4925C17.7624 13.7725 17.7624 14.21 17.4824 14.49L12.2324 19.74C12.0749 19.88 11.8999 19.95 11.7249 19.95Z" fill="#2C5AB6"/>
<path d="M16.9749 14.7C16.7999 14.7 16.6249 14.63 16.4849 14.49L11.2349 9.23997C10.9549 8.95997 10.9549 8.52247 11.2349 8.24247C11.5149 7.96247 11.9524 7.96247 12.2324 8.24247L17.4824 13.4925C17.7624 13.7725 17.7624 14.21 17.4824 14.49C17.3249 14.63 17.1499 14.7 16.9749 14.7Z" fill="#2C5AB6"/>
<path d="M14 28C6.2825 28 0 21.7175 0 14C0 6.2825 6.2825 0 14 0C21.7175 0 28 6.2825 28 14C28 21.7175 21.7175 28 14 28ZM14 1.4C7.0525 1.4 1.4 7.0525 1.4 14C1.4 20.9475 7.0525 26.6 14 26.6C20.9475 26.6 26.6 20.9475 26.6 14C26.6 7.0525 20.9475 1.4 14 1.4Z" fill="#2C5AB6"/>
</svg>
