<svg width="367" height="183" viewBox="0 0 367 183" fill="none" xmlns="http://www.w3.org/2000/svg">
<path d="M26.98 2.01464e-05L55.86 5.89002C53.58 11.97 51.11 18.05 48.45 24.13C45.9167 30.21 43.3833 35.91 40.85 41.23C38.3167 46.55 35.91 51.3 33.63 55.48L9.5 49.4C11.78 44.9667 13.9967 39.9 16.15 34.2C18.43 28.5 20.52 22.6734 22.42 16.72C24.32 10.7667 25.84 5.19335 26.98 2.01464e-05ZM7.07805e-08 38.19C6.96667 37.9367 14.8833 37.6834 23.75 37.43C32.7433 37.05 42.1167 36.6067 51.87 36.1C61.75 35.5934 71.5667 35.15 81.32 34.77L81.13 58.71C71.8833 59.3434 62.5733 60.04 53.2 60.8C43.8267 61.4334 34.77 62.0667 26.03 62.7C17.4167 63.2067 9.43667 63.7134 2.09 64.22L7.07805e-08 38.19ZM11.21 70.49H71.63V92.91H36.67V181.64H11.21V70.49ZM58.33 70.49H85.69V155.04C85.69 160.613 85.0567 165.11 83.79 168.53C82.5233 172.077 80.0533 174.863 76.38 176.89C72.8333 178.917 68.78 180.183 64.22 180.69C59.66 181.197 54.5933 181.45 49.02 181.45C48.3867 177.777 47.1833 173.597 45.41 168.91C43.7633 164.223 42.0533 160.297 40.28 157.13C43.0667 157.257 45.98 157.383 49.02 157.51C52.06 157.51 54.15 157.447 55.29 157.32C56.43 157.32 57.19 157.13 57.57 156.75C58.0767 156.37 58.33 155.61 58.33 154.47V70.49ZM22.61 99.37H74.1V119.51H22.61V99.37ZM22.61 126.92H74.1V147.06H22.61V126.92ZM98.99 2.28002H126.54V56.05C126.54 59.5967 126.92 61.8134 127.68 62.7C128.567 63.46 130.593 63.84 133.76 63.84C134.393 63.84 135.407 63.84 136.8 63.84C138.193 63.84 139.713 63.84 141.36 63.84C143.007 63.84 144.527 63.84 145.92 63.84C147.44 63.84 148.58 63.84 149.34 63.84C151.24 63.84 152.633 63.3967 153.52 62.51C154.533 61.6234 155.23 59.9134 155.61 57.38C156.117 54.72 156.497 50.7934 156.75 45.6C158.65 46.9934 160.993 48.3867 163.78 49.78C166.693 51.0467 169.67 52.25 172.71 53.39C175.877 54.4034 178.663 55.1634 181.07 55.67C180.183 64.1567 178.663 70.8067 176.51 75.62C174.357 80.3067 171.317 83.6 167.39 85.5C163.463 87.4 158.333 88.35 152 88.35C150.987 88.35 149.72 88.35 148.2 88.35C146.68 88.35 145.033 88.35 143.26 88.35C141.487 88.35 139.713 88.35 137.94 88.35C136.293 88.35 134.71 88.35 133.19 88.35C131.797 88.35 130.593 88.35 129.58 88.35C121.347 88.35 115.013 87.4 110.58 85.5C106.147 83.4734 103.107 80.18 101.46 75.62C99.8133 70.9334 98.99 64.5367 98.99 56.43V2.28002ZM155.23 11.97L172.52 31.92C166.693 34.7067 160.487 37.3667 153.9 39.9C147.44 42.4334 140.917 44.7767 134.33 46.93C127.743 48.9567 121.347 50.7934 115.14 52.44C114.633 49.78 113.557 46.6134 111.91 42.94C110.39 39.2667 108.933 36.1634 107.54 33.63C113.24 31.73 118.94 29.64 124.64 27.36C130.467 24.9534 135.977 22.42 141.17 19.76C146.49 17.1 151.177 14.5034 155.23 11.97ZM98.99 91.39H126.35V148.77C126.35 152.317 126.793 154.533 127.68 155.42C128.693 156.307 130.783 156.75 133.95 156.75C134.583 156.75 135.597 156.75 136.99 156.75C138.51 156.75 140.093 156.75 141.74 156.75C143.513 156.75 145.16 156.75 146.68 156.75C148.2 156.75 149.34 156.75 150.1 156.75C152.127 156.75 153.647 156.243 154.66 155.23C155.673 154.09 156.433 152 156.94 148.96C157.447 145.793 157.827 141.17 158.08 135.09C160.993 137.117 164.793 139.08 169.48 140.98C174.293 142.88 178.537 144.273 182.21 145.16C181.323 154.28 179.803 161.437 177.65 166.63C175.497 171.823 172.457 175.433 168.53 177.46C164.603 179.613 159.347 180.69 152.76 180.69C151.747 180.69 150.417 180.69 148.77 180.69C147.25 180.69 145.603 180.69 143.83 180.69C142.057 180.69 140.22 180.69 138.32 180.69C136.547 180.69 134.9 180.69 133.38 180.69C131.86 180.69 130.593 180.69 129.58 180.69C121.473 180.69 115.203 179.677 110.77 177.65C106.337 175.75 103.233 172.457 101.46 167.77C99.8133 163.21 98.99 156.94 98.99 148.96V91.39ZM156.18 97.85L174.23 117.99C168.277 121.157 161.88 124.133 155.04 126.92C148.327 129.707 141.55 132.303 134.71 134.71C127.87 137.117 121.22 139.27 114.76 141.17C114.127 138.51 112.987 135.28 111.34 131.48C109.693 127.68 108.173 124.513 106.78 121.98C112.733 119.953 118.687 117.61 124.64 114.95C130.593 112.163 136.293 109.313 141.74 106.4C147.187 103.487 152 100.637 156.18 97.85ZM53.96 22.42L77.52 13.68C80.56 18.3667 83.4733 23.4334 86.26 28.88C89.1733 34.2 91.77 39.52 94.05 44.84C96.4567 50.0334 98.1667 54.7834 99.18 59.09L73.72 68.97C72.8333 64.79 71.3767 60.04 69.35 54.72C67.3233 49.4 64.98 43.9534 62.32 38.38C59.66 32.68 56.8733 27.36 53.96 22.42ZM204.44 39.9H349.03V68.21H204.44V39.9ZM337.44 39.9H366.32C366.32 39.9 366.257 40.7234 366.13 42.37C366.13 44.0167 366.067 45.8534 365.94 47.88C365.94 49.78 365.877 51.3634 365.75 52.63C364.863 71.25 363.913 87.21 362.9 100.51C362.013 113.81 360.937 124.893 359.67 133.76C358.53 142.627 357.137 149.72 355.49 155.04C353.97 160.233 352.133 164.16 349.98 166.82C346.813 170.873 343.583 173.723 340.29 175.37C336.997 177.017 333.133 178.157 328.7 178.79C325.027 179.423 320.403 179.74 314.83 179.74C309.383 179.867 303.81 179.867 298.11 179.74C297.983 175.687 296.97 170.873 295.07 165.3C293.297 159.727 291.08 154.977 288.42 151.05C294.247 151.557 299.63 151.873 304.57 152C309.51 152 313.31 152 315.97 152C317.87 152 319.453 151.81 320.72 151.43C322.113 150.923 323.443 150.037 324.71 148.77C326.23 147.25 327.623 144.147 328.89 139.46C330.283 134.647 331.487 128.123 332.5 119.89C333.513 111.53 334.4 101.207 335.16 88.92C336.047 76.5067 336.807 61.94 337.44 45.22V39.9ZM260.68 1.71002H290.13V44.46C290.13 53.0734 289.687 62.2567 288.8 72.01C288.04 81.7634 286.33 91.7067 283.67 101.84C281.137 111.973 277.273 121.98 272.08 131.86C267.013 141.613 260.237 150.86 251.75 159.6C243.263 168.34 232.687 176.13 220.02 182.97C218.5 180.69 216.473 178.093 213.94 175.18C211.407 172.267 208.683 169.48 205.77 166.82C202.983 164.16 200.45 162.007 198.17 160.36C209.57 154.533 219.007 147.947 226.48 140.6C234.08 133.253 240.16 125.463 244.72 117.23C249.28 108.997 252.7 100.637 254.98 92.15C257.26 83.6634 258.78 75.3667 259.54 67.26C260.3 59.0267 260.68 51.4267 260.68 44.46V1.71002Z" fill="white"/>
</svg>
