<svg width="570" height="183" viewBox="0 0 570 183" fill="none" xmlns="http://www.w3.org/2000/svg">
<path d="M81.3203 88.5399C89.3003 107.16 101.777 122.233 118.75 133.76C135.85 145.287 157.954 153.077 185.06 157.13C183.16 159.03 181.07 161.5 178.79 164.54C176.637 167.58 174.547 170.683 172.52 173.85C170.62 177.017 169.037 179.867 167.77 182.4C148.644 178.6 132.114 172.9 118.18 165.3C104.247 157.7 92.3403 148.137 82.4603 136.61C72.7069 124.957 64.4103 111.213 57.5703 95.3799L81.3203 88.5399ZM139.65 79.6099H145.16L150.29 78.4699L169.67 87.3999C165.237 101.08 159.41 113.113 152.19 123.5C144.97 133.76 136.547 142.69 126.92 150.29C117.294 157.89 106.59 164.287 94.8103 169.48C83.0303 174.673 70.3636 178.98 56.8103 182.4C55.2903 178.727 53.1369 174.483 50.3503 169.67C47.5636 164.857 44.8403 160.93 42.1803 157.89C54.0869 155.61 65.2336 152.38 75.6203 148.2C86.1336 143.893 95.6336 138.7 104.12 132.62C112.607 126.54 119.827 119.447 125.78 111.34C131.86 103.233 136.484 94.1766 139.65 84.1699V79.6099ZM72.5803 79.6099H143.64V106.21H64.6003L72.5803 79.6099ZM79.8003 -9.21488e-05L110.77 5.12991C108.237 24.5099 104.817 42.4332 100.51 58.8999C96.2036 75.2399 90.5669 90.2499 83.6003 103.93C76.7603 117.483 68.1469 129.58 57.7603 140.22C47.3736 150.86 34.8336 160.043 20.1403 167.77C19.0003 165.743 17.2269 163.273 14.8203 160.36C12.5403 157.447 10.0703 154.597 7.41027 151.81C4.75027 149.023 2.28027 146.807 0.000273488 145.16C17.3536 136.547 31.3503 125.273 41.9903 111.34C52.7569 97.2799 61.0536 80.8766 66.8803 62.1299C72.8336 43.3832 77.1403 22.6732 79.8003 -9.21488e-05ZM123.88 13.8699L145.35 1.1399C147.63 3.67324 150.164 6.52324 152.95 9.68991C155.737 12.7299 158.397 15.7699 160.93 18.8099C163.59 21.7232 165.744 24.3199 167.39 26.5999L144.78 40.8499C143.387 38.5699 141.424 35.8466 138.89 32.6799C136.484 29.5132 133.95 26.2832 131.29 22.9899C128.63 19.6966 126.16 16.6566 123.88 13.8699ZM21.8503 71.4399C21.3436 69.5399 20.5203 67.1332 19.3803 64.2199C18.3669 61.1799 17.2903 58.0766 16.1503 54.9099C15.0103 51.7432 13.9336 49.0832 12.9203 46.9299C14.4403 46.2966 15.9603 45.3466 17.4803 44.0799C19.0003 42.6866 20.3936 40.9132 21.6603 38.7599C22.5469 37.3666 23.8136 35.0232 25.4603 31.7299C27.1069 28.3099 28.8169 24.2566 30.5903 19.5699C32.4903 14.8832 34.0736 10.0066 35.3403 4.9399L64.2203 9.3099C62.5736 15.0099 60.4836 20.7732 57.9503 26.5999C55.4169 32.4266 52.7569 37.9366 49.9703 43.1299C47.1836 48.3232 44.5869 52.8199 42.1803 56.6199V56.9999C42.1803 56.9999 41.1669 57.5066 39.1403 58.5199C37.1136 59.4066 34.7069 60.6099 31.9203 62.1299C29.2603 63.6499 26.9169 65.2332 24.8903 66.8799C22.8636 68.5266 21.8503 70.0466 21.8503 71.4399ZM21.8503 71.4399V51.6799L37.4303 40.2799H178.79L178.6 66.4999H41.6103C37.0503 66.4999 32.8069 66.9432 28.8803 67.8299C24.9536 68.5899 22.6103 69.7932 21.8503 71.4399ZM232.56 34.7699H365.18V61.7499H232.56V34.7699ZM224.96 90.8199H357.58V117.42H224.96V90.8199ZM202.35 150.1H375.25V177.08H202.35V150.1ZM274.17 1.70991H303.05V163.4H274.17V1.70991ZM229.52 3.60991L258.21 10.0699C255.424 19.8232 252.067 29.5132 248.14 39.1399C244.214 48.7666 239.97 57.7599 235.41 66.1199C230.85 74.3532 226.1 81.5099 221.16 87.5899C219.387 85.9432 216.98 84.1066 213.94 82.0799C210.9 79.9266 207.797 77.8366 204.63 75.8099C201.464 73.7832 198.677 72.1366 196.27 70.8699C201.21 65.6766 205.77 59.4699 209.95 52.2499C214.13 45.0299 217.867 37.2399 221.16 28.8799C224.58 20.5199 227.367 12.0966 229.52 3.60991ZM398.62 26.4099H569.81V52.8199H398.62V26.4099ZM462.27 88.7299H561.64V114.19H462.27V88.7299ZM455.05 151.81H568.86V177.27H455.05V151.81ZM498.75 60.0399H526.68V165.3H498.75V60.0399ZM457.14 1.5199L486.02 8.3599C481.207 24.0666 475.127 39.5199 467.78 54.7199C460.56 69.9199 451.757 84.0432 441.37 97.0899C431.11 110.137 418.95 121.347 404.89 130.72C404.004 128.06 402.737 125.083 401.09 121.79C399.57 118.497 397.987 115.267 396.34 112.1C394.694 108.807 393.174 106.02 391.78 103.74C400.394 98.4199 408.184 91.8966 415.15 84.1699C422.117 76.4432 428.324 68.0199 433.77 58.8999C439.217 49.6532 443.84 40.1532 447.64 30.3999C451.567 20.6466 454.734 11.0199 457.14 1.5199ZM418.95 81.8899H446.88V182.02H418.95V81.8899Z" fill="white"/>
</svg>
