<svg width="570" height="178" viewBox="0 0 570 178" fill="none" xmlns="http://www.w3.org/2000/svg">
<path d="M2.65977 41.9901H65.1698V68.0201H2.65977V41.9901ZM21.8498 9.13143e-05H47.4998V127.49H21.8498V9.13143e-05ZM-0.000234075 128.63C5.31977 127.11 11.4631 125.21 18.4298 122.93C25.3964 120.65 32.7431 118.18 40.4698 115.52C48.3231 112.733 56.0498 110.01 63.6498 107.35L69.1598 132.43C59.1531 136.737 48.8298 141.043 38.1898 145.35C27.6764 149.53 17.9231 153.393 8.92977 156.94L-0.000234075 128.63ZM67.0698 5.51009H147.63V31.5401H67.0698V5.51009ZM152.38 55.6701H180.12C180.12 55.6701 180.056 56.4301 179.93 57.9501C179.93 59.3434 179.866 60.9268 179.74 62.7001C179.74 64.4734 179.676 65.9301 179.55 67.0701C178.663 83.2834 177.713 97.1534 176.7 108.68C175.813 120.207 174.8 129.833 173.66 137.56C172.52 145.287 171.253 151.43 169.86 155.99C168.593 160.423 167.073 163.717 165.3 165.87C162.893 169.163 160.296 171.507 157.51 172.9C154.85 174.293 151.873 175.307 148.58 175.94C145.666 176.447 142.183 176.763 138.13 176.89C134.076 177.143 129.706 177.207 125.02 177.08C124.893 173.28 124.133 168.91 122.74 163.97C121.346 159.03 119.573 154.787 117.42 151.24C120.966 151.62 124.196 151.873 127.11 152C130.15 152.127 132.556 152.19 134.33 152.19C135.85 152.19 137.116 151.937 138.13 151.43C139.27 150.923 140.346 150.037 141.36 148.77C142.88 146.997 144.273 143.007 145.54 136.8C146.933 130.593 148.2 121.347 149.34 109.06C150.48 96.6468 151.493 80.5601 152.38 60.8001V55.6701ZM77.1398 84.7401C76.5064 82.8401 75.4931 80.3068 74.0998 77.1401C72.8331 73.9734 71.4398 70.7434 69.9198 67.4501C68.5264 64.1568 67.1964 61.4334 65.9298 59.2801C68.9698 58.6468 72.2631 57.4434 75.8098 55.6701C79.3564 53.7701 82.9031 51.6168 86.4498 49.2101C88.2231 48.0701 90.9464 46.2334 94.6198 43.7001C98.4198 41.1668 102.6 38.1268 107.16 34.5801C111.846 31.0334 116.596 27.1701 121.41 22.9901C126.223 18.6834 130.593 14.1868 134.52 9.50009V7.98009L147.06 3.42009L166.25 19.0001C154.723 29.7668 142.563 39.7734 129.77 49.0201C116.976 58.1401 105.133 65.6768 94.2398 71.6301V72.2001C94.2398 72.2001 93.3531 72.6434 91.5798 73.5301C89.9331 74.2901 87.9698 75.3668 85.6898 76.7601C83.4098 78.0268 81.3831 79.4201 79.6098 80.9401C77.9631 82.3334 77.1398 83.6001 77.1398 84.7401ZM77.1398 84.7401V62.8901L89.2998 55.6701H161.69L161.5 81.5101H94.6198C91.0731 81.5101 87.4631 81.8268 83.7898 82.4601C80.2431 82.9668 78.0264 83.7268 77.1398 84.7401ZM125.59 72.3901L149.53 76.7601C144.21 98.4201 136.736 117.673 127.11 134.52C117.483 151.367 105.956 165.047 92.5298 175.56C91.1364 174.167 89.1098 172.52 86.4498 170.62C83.9164 168.847 81.3198 167.01 78.6598 165.11C75.9998 163.337 73.6564 161.943 71.6298 160.93C85.5631 151.81 96.9631 139.587 105.83 124.26C114.823 108.933 121.41 91.6434 125.59 72.3901ZM92.7198 72.2001L116.66 76.7601C113.113 89.4268 107.983 100.953 101.27 111.34C94.6831 121.6 87.1464 130.087 78.6598 136.8C77.2664 135.407 75.3031 133.823 72.7698 132.05C70.3631 130.15 67.8931 128.313 65.3598 126.54C62.8264 124.64 60.6098 123.183 58.7098 122.17C67.0698 116.723 74.1631 109.63 79.9898 100.89C85.8164 92.1501 90.0598 82.5868 92.7198 72.2001ZM248.33 39.9001V45.7901H323.19V39.9001H248.33ZM248.33 18.8101V24.5101H323.19V18.8101H248.33ZM221.92 2.28008H350.93V62.3201H221.92V2.28008ZM201.59 67.4501H370.12V88.5401H201.59V67.4501ZM252.89 111.34V120.08H320.34V111.34H252.89ZM226.48 92.9101H348.27V138.51H226.48V92.9101ZM272.27 58.3301H300.58V79.8001H272.27V58.3301ZM273.41 128.06H301.15V154.85C301.15 160.55 300.326 164.857 298.68 167.77C297.16 170.683 294.246 172.9 289.94 174.42C285.633 175.813 280.82 176.637 275.5 176.89C270.18 177.143 264.163 177.27 257.45 177.27C256.816 173.977 255.74 170.367 254.22 166.44C252.826 162.513 251.37 159.093 249.85 156.18C252.13 156.307 254.663 156.433 257.45 156.56C260.236 156.56 262.77 156.56 265.05 156.56C267.456 156.56 269.04 156.56 269.8 156.56C271.193 156.433 272.143 156.18 272.65 155.8C273.156 155.42 273.41 154.723 273.41 153.71V128.06ZM304.57 151.43L323 137.18C327.94 138.953 333.386 141.17 339.34 143.83C345.293 146.363 351.056 149.023 356.63 151.81C362.203 154.597 366.89 157.257 370.69 159.79L350.93 175.56C347.636 173.153 343.33 170.493 338.01 167.58C332.816 164.667 327.243 161.817 321.29 159.03C315.336 156.117 309.763 153.583 304.57 151.43ZM240.54 136.8L265.81 146.87C261.503 150.67 256.5 154.407 250.8 158.08C245.1 161.627 239.21 164.92 233.13 167.96C227.176 171 221.413 173.597 215.84 175.75C214.32 173.977 212.356 171.887 209.95 169.48C207.543 167.073 205.073 164.667 202.54 162.26C200.006 159.853 197.726 157.953 195.7 156.56C201.273 155.04 206.846 153.267 212.42 151.24C218.12 149.087 223.376 146.807 228.19 144.4C233.13 141.867 237.246 139.333 240.54 136.8ZM442.32 60.6101V71.4401H525.16V60.6101H442.32ZM442.32 27.7401V38.1901H525.16V27.7401H442.32ZM414.77 3.42009H554.04V95.7601H414.77V3.42009ZM396.34 146.49H569.24V172.14H396.34V146.49ZM409.26 108.68H559.93V134.14H409.26V108.68ZM471.2 18.6201H497.23V89.3001H499.32V163.02H468.92V89.3001H471.2V18.6201Z" fill="white"/>
</svg>
