<svg width="50" height="50" viewBox="0 0 50 50" fill="none" xmlns="http://www.w3.org/2000/svg">
<path d="M42.5622 37.6372C43.0498 38.126 43.3236 38.7881 43.3236 39.4785C43.3236 40.1689 43.0498 40.8311 42.5622 41.3198L40.7207 43.1613C39.3601 44.522 37.5703 45.3508 35.4011 45.6252C34.8631 45.6924 34.3215 45.7257 33.7793 45.7248C32.2005 45.7248 30.4971 45.4582 28.694 44.9279C23.7998 43.4894 18.6524 40.2453 14.2041 35.7957C9.75588 31.3462 6.51044 26.2004 5.07196 21.3058C4.35582 18.8674 4.12014 16.6108 4.3747 14.6001C4.64911 12.4308 5.47789 10.6411 6.83856 9.28044L8.68004 7.43896C9.16878 6.95138 9.83097 6.67755 10.5213 6.67755C11.2117 6.67755 11.8739 6.95138 12.3627 7.43896L20.4652 15.5412C20.9528 16.03 21.2266 16.6922 21.2266 17.3826C21.2266 18.0731 20.9528 18.7353 20.4652 19.2241L18.6237 21.0643C17.5821 22.106 18.6188 25.479 21.57 28.4298C24.5212 31.3807 27.8926 32.4191 28.9356 31.3761L30.777 29.5347C31.2658 29.0471 31.9281 28.7732 32.6185 28.7732C33.3089 28.7732 33.9712 29.0471 34.46 29.5347L42.5622 37.6372ZM45.1527 8.56429C44.723 7.6932 44.111 6.9139 43.334 6.24788C41.7679 4.90576 39.6963 4.1665 37.5 4.1665C35.3037 4.1665 33.2321 4.90576 31.666 6.24788C30.889 6.9139 30.277 7.6932 29.8474 8.56429C29.3995 9.46321 29.1665 10.4539 29.1667 11.4582C29.1709 12.6526 29.4993 13.8235 30.1169 14.8459C30.5142 15.5033 31.0106 16.0954 31.5886 16.6014C31.1254 16.9894 30.5166 17.3872 29.7005 17.8416C29.4999 17.9543 29.3422 18.1304 29.2521 18.3422C29.162 18.554 29.1446 18.7896 29.2026 19.0124C29.2606 19.2351 29.3908 19.4324 29.5727 19.5733C29.7547 19.7143 29.9782 19.791 30.2084 19.7915C32.5453 19.7915 34.5323 19.3911 35.9893 18.63C36.4889 18.7098 36.9941 18.7498 37.5 18.7498C39.6963 18.7498 41.7679 18.0106 43.334 16.6685C44.111 16.0024 44.723 15.2231 45.1527 14.352C45.6004 13.4531 45.8333 12.4625 45.8333 11.4582C45.8333 10.4539 45.6004 9.46329 45.1527 8.56429Z" fill="#090909"/>
</svg>
