<svg width="50" height="50" viewBox="0 0 50 50" fill="none" xmlns="http://www.w3.org/2000/svg">
<path d="M32.4336 17.9952C32.9226 17.9952 33.4048 18.031 33.8824 18.0829C32.5813 12.0863 26.1012 7.62988 18.7054 7.62988C10.4362 7.62988 3.66211 13.2077 3.66211 20.2897C3.66211 24.3771 5.91628 27.7341 9.68173 30.3378L8.1774 34.8168L13.4356 32.2067C15.3184 32.5747 16.8272 32.9542 18.7054 32.9542C19.1772 32.9542 19.6444 32.9312 20.1093 32.8944C19.8151 31.8999 19.6444 30.8571 19.6444 29.7761C19.6444 23.2731 25.2879 17.9952 32.4336 17.9952ZM24.3466 13.9587C25.4794 13.9587 26.2293 14.697 26.2293 15.8172C26.2293 16.9327 25.4794 17.6803 24.3466 17.6803C23.2183 17.6803 22.0878 16.9327 22.0878 15.8172C22.0878 14.697 23.2184 13.9587 24.3466 13.9587ZM13.8186 17.6802C12.6903 17.6802 11.5529 16.9327 11.5529 15.8171C11.5529 14.6969 12.6903 13.9586 13.8186 13.9586C14.9457 13.9586 15.6967 14.6969 15.6967 15.8171C15.6967 16.9327 14.9457 17.6802 13.8186 17.6802ZM46.1639 29.5972C46.1639 23.6457 40.1455 18.7947 33.3864 18.7947C26.2293 18.7947 20.5927 23.6457 20.5927 29.5972C20.5927 35.5574 26.2293 40.3981 33.3864 40.3981C34.8838 40.3981 36.3951 40.0265 37.8993 39.6528L42.0259 41.8885L40.8942 38.1692C43.9145 35.9266 46.1639 32.9542 46.1639 29.5972ZM29.2379 27.7341C28.4893 27.7341 27.7336 26.997 27.7336 26.2448C27.7336 25.503 28.4893 24.7566 29.2379 24.7566C30.3754 24.7566 31.1206 25.503 31.1206 26.2448C31.1206 26.997 30.3754 27.7341 29.2379 27.7341ZM37.5117 27.7341C36.7689 27.7341 36.0178 26.997 36.0178 26.2448C36.0178 25.503 36.7689 24.7566 37.5117 24.7566C38.64 24.7566 39.3944 25.503 39.3944 26.2448C39.3944 26.997 38.64 27.7341 37.5117 27.7341Z" fill="#090909"/>
</svg>
