<svg width="1619" height="237" viewBox="0 0 1619 237" fill="none" xmlns="http://www.w3.org/2000/svg">
<path d="M1571.44 236.16C1541.18 236.16 1523.29 215.68 1523.29 193.92V153.92C1523.29 152.32 1524.26 151.36 1525.89 151.36H1560.05C1561.35 151.36 1562.65 152.32 1562.65 153.92V192.32C1562.65 196.8 1566.23 200.32 1570.78 200.32C1575.34 200.32 1578.92 196.8 1578.92 192.32V160.64C1578.92 155.52 1577.29 151.36 1573.71 147.84L1539.55 111.36C1528.17 99.52 1523.29 88 1523.29 71.68V42.24C1523.29 20.48 1540.2 0 1570.46 0C1600.39 0 1618.28 20.48 1618.28 42.24V79.04C1618.28 80.32 1617.31 81.6 1615.68 81.6H1581.52C1579.89 81.6 1578.92 80.64 1578.92 79.04V43.52C1578.92 39.04 1575.34 35.52 1570.78 35.52C1566.23 35.52 1562.65 39.04 1562.65 43.52V72.64C1562.65 77.76 1564.28 81.92 1567.86 85.44L1602.34 122.24C1613.4 134.08 1618.28 145.28 1618.28 161.6V193.92C1618.28 215.68 1601.37 236.16 1571.44 236.16Z" fill="#090909"/>
<path d="M1459.76 236.16C1429.51 236.16 1411.61 215.68 1411.61 193.92V153.92C1411.61 152.32 1412.59 151.36 1414.22 151.36H1448.38C1449.68 151.36 1450.98 152.32 1450.98 153.92V192.32C1450.98 196.8 1454.56 200.32 1459.11 200.32C1463.67 200.32 1467.25 196.8 1467.25 192.32V160.64C1467.25 155.52 1465.62 151.36 1462.04 147.84L1427.88 111.36C1416.49 99.52 1411.61 88 1411.61 71.68V42.24C1411.61 20.48 1428.53 0 1458.79 0C1488.72 0 1506.61 20.48 1506.61 42.24V79.04C1506.61 80.32 1505.64 81.6 1504.01 81.6H1469.85C1468.22 81.6 1467.25 80.64 1467.25 79.04V43.52C1467.25 39.04 1463.67 35.52 1459.11 35.52C1454.56 35.52 1450.98 39.04 1450.98 43.52V72.64C1450.98 77.76 1452.61 81.92 1456.19 85.44L1490.67 122.24C1501.73 134.08 1506.61 145.28 1506.61 161.6V193.92C1506.61 215.68 1489.7 236.16 1459.76 236.16Z" fill="#090909"/>
<path d="M1309.29 231.68C1307.99 231.68 1306.69 230.72 1306.69 229.12V7.03999C1306.69 5.43999 1307.67 4.47998 1309.29 4.47998H1393.23C1394.86 4.47998 1395.84 5.43999 1395.84 7.03999V37.44C1395.84 39.04 1394.86 40 1393.23 40H1346.06V99.52H1383.47C1385.1 99.52 1386.07 100.48 1386.07 102.08V132.48C1386.07 134.08 1385.1 135.04 1383.47 135.04H1346.06V196.16H1393.23C1394.86 196.16 1395.84 197.12 1395.84 198.72V229.12C1395.84 230.72 1394.86 231.68 1393.23 231.68H1309.29Z" fill="#090909"/>
<path d="M1237.71 236.16C1207.78 236.16 1190.86 215.68 1190.86 193.92V42.24C1190.86 20.48 1207.78 0 1237.71 0C1267.97 0 1285.86 20.48 1285.86 42.24V106.56C1285.86 108.16 1284.88 109.12 1283.26 109.12H1249.1C1247.47 109.12 1246.49 108.16 1246.49 106.56V43.52C1246.49 39.04 1242.91 35.52 1238.36 35.52C1233.48 35.52 1229.9 39.04 1229.9 43.52V192.32C1229.9 196.8 1233.48 200.32 1238.36 200.32C1242.91 200.32 1246.49 196.8 1246.49 192.32V129.28C1246.49 127.68 1247.47 126.72 1249.1 126.72H1283.26C1284.88 126.72 1285.86 127.68 1285.86 129.28V193.92C1285.86 215.68 1267.97 236.16 1237.71 236.16Z" fill="#090909"/>
<path d="M1122.86 236.16C1092.93 236.16 1076.01 215.68 1076.01 193.92V42.24C1076.01 20.48 1092.93 0 1122.86 0C1153.12 0 1171.01 20.48 1171.01 42.24V193.92C1171.01 215.68 1153.12 236.16 1122.86 236.16ZM1115.38 192.32C1115.38 196.8 1118.96 200.32 1123.51 200.32C1128.07 200.32 1131.65 196.8 1131.65 192.32V43.52C1131.65 39.04 1128.07 35.52 1123.51 35.52C1118.96 35.52 1115.38 39.04 1115.38 43.52V192.32Z" fill="#090909"/>
<path d="M965.068 231.68C963.441 231.68 962.465 230.72 962.465 229.12V7.36021C962.465 5.76021 963.766 4.8002 965.068 4.8002L1009.64 4.48021C1039.57 4.16021 1057.46 24.9602 1057.46 46.7202V91.8402C1057.46 104 1052.26 115.52 1042.17 121.92V122.88C1052.26 130.56 1057.46 141.12 1057.46 152.96V202.56C1057.46 212.8 1057.79 220.8 1059.74 228.8C1060.39 230.4 1059.42 231.68 1057.79 231.68H1023.95C1022.33 231.68 1021.35 230.72 1021.03 229.44C1018.75 219.52 1018.42 210.88 1018.42 197.44V149.76C1018.42 145.28 1014.52 141.76 1009.96 141.76H1001.83V229.12C1001.83 230.4 1000.86 231.68 999.228 231.68H965.068ZM1001.83 106.56H1010.29C1014.84 106.56 1018.42 103.04 1018.42 98.2402V48.0002C1018.42 43.5202 1014.84 40.0002 1010.29 40.0002H1001.83V106.56Z" fill="#090909"/>
<path d="M850.855 231.68C849.228 231.68 848.252 230.72 848.252 229.12V7.03999C848.252 5.43999 849.228 4.47998 850.855 4.47998H895.426C925.358 4.47998 943.252 24.96 943.252 46.72V101.12C943.252 122.88 925.358 143.36 895.426 143.36H887.618V229.12C887.618 230.72 886.642 231.68 885.016 231.68H850.855ZM887.618 107.52H895.752C900.307 107.52 903.885 104 903.885 99.52V48C903.885 43.52 900.307 40 895.752 40H887.618V107.52Z" fill="#090909"/>
<path d="M712.249 231.68C710.622 231.68 709.646 230.72 709.646 229.12L709.972 40H684.595C682.968 40 681.992 38.72 681.992 37.44L681.667 7.03999C681.667 5.43999 682.643 4.47998 684.27 4.47998H774.064C775.365 4.47998 776.667 5.43999 776.667 7.03999V37.44C776.667 39.04 775.691 40 774.064 40H749.013V229.12C749.013 230.72 748.037 231.68 746.41 231.68H712.249Z" fill="#090909"/>
<path d="M620.742 236.16C590.81 236.16 573.893 215.68 573.893 193.92V42.24C573.893 20.48 590.81 0 620.742 0C650.999 0 668.892 20.48 668.892 42.24V106.56C668.892 108.16 667.916 109.12 666.29 109.12H632.129C630.502 109.12 629.526 108.16 629.526 106.56V43.52C629.526 39.04 625.947 35.52 621.392 35.52C616.512 35.52 612.934 39.04 612.934 43.52V192.32C612.934 196.8 616.512 200.32 621.392 200.32C625.947 200.32 629.526 196.8 629.526 192.32V129.28C629.526 127.68 630.502 126.72 632.129 126.72H666.29C667.916 126.72 668.892 127.68 668.892 129.28V193.92C668.892 215.68 650.999 236.16 620.742 236.16Z" fill="#090909"/>
<path d="M459.045 7.03999C459.045 5.43999 460.021 4.47998 461.648 4.47998H495.483C497.11 4.47998 498.086 5.43999 498.086 7.03999V192.32C498.086 196.8 501.665 200.32 506.545 200.32C511.1 200.32 514.678 196.8 514.678 192.32V7.03999C514.678 5.43999 515.654 4.47998 517.281 4.47998H551.442C552.743 4.47998 554.045 5.43999 554.045 7.03999V193.92C554.045 215.68 536.151 236.16 505.894 236.16C475.963 236.16 459.045 215.68 459.045 193.92V7.03999Z" fill="#090909"/>
<path d="M346.512 231.68C345.211 231.68 343.909 230.72 343.909 229.12V7.03999C343.909 5.43999 344.885 4.47998 346.512 4.47998H391.084C421.015 4.47998 438.909 24.96 438.909 46.72V189.44C438.909 211.2 421.015 231.68 391.084 231.68H346.512ZM383.276 195.84H391.409C395.964 195.84 399.543 192.32 399.543 187.84V48C399.543 43.52 395.964 40 391.409 40H383.276V195.84Z" fill="#090909"/>
<path d="M274.609 236.16C244.678 236.16 227.76 215.68 227.76 193.92V42.24C227.76 20.48 244.678 0 274.609 0C304.866 0 322.76 20.48 322.76 42.24V193.92C322.76 215.68 304.866 236.16 274.609 236.16ZM267.126 192.32C267.126 196.8 270.705 200.32 275.26 200.32C279.814 200.32 283.393 196.8 283.393 192.32V43.52C283.393 39.04 279.814 35.52 275.26 35.52C270.705 35.52 267.126 39.04 267.126 43.52V192.32Z" fill="#090909"/>
<path d="M116.817 231.68C115.19 231.68 114.214 230.72 114.214 229.12V7.36021C114.214 5.76021 115.515 4.8002 116.817 4.8002L161.388 4.48021C191.32 4.16021 209.214 24.9602 209.214 46.7202V91.8402C209.214 104 204.008 115.52 193.923 121.92V122.88C204.008 130.56 209.214 141.12 209.214 152.96V202.56C209.214 212.8 209.539 220.8 211.491 228.8C212.142 230.4 211.166 231.68 209.539 231.68H175.703C174.077 231.68 173.101 230.72 172.775 229.44C170.498 219.52 170.173 210.88 170.173 197.44V149.76C170.173 145.28 166.269 141.76 161.714 141.76H153.58V229.12C153.58 230.4 152.604 231.68 150.977 231.68H116.817ZM153.58 106.56H162.039C166.594 106.56 170.173 103.04 170.173 98.2402V48.0002C170.173 43.5202 166.594 40.0002 162.039 40.0002H153.58V106.56Z" fill="#090909"/>
<path d="M2.60273 231.68C0.976024 231.68 0 230.72 0 229.12V7.03999C0 5.43999 0.976024 4.47998 2.60273 4.47998H47.1745C77.106 4.47998 94.9997 24.96 94.9997 46.72V101.12C94.9997 122.88 77.106 143.36 47.1745 143.36H39.3663V229.12C39.3663 230.72 38.3903 231.68 36.7636 231.68H2.60273ZM39.3663 107.52H47.4999C52.0546 107.52 55.6334 104 55.6334 99.52V48C55.6334 43.52 52.0546 40 47.4999 40H39.3663V107.52Z" fill="#090909"/>
</svg>
