<svg width="1699" height="360" viewBox="0 0 1699 360" fill="none" xmlns="http://www.w3.org/2000/svg">
<rect width="1699" height="360" fill="#EBEAE4"/>
<path d="M1613.15 286.16C1582.89 286.16 1565 265.68 1565 243.92V203.92C1565 202.32 1565.98 201.36 1567.6 201.36H1601.76C1603.06 201.36 1604.37 202.32 1604.37 203.92V242.32C1604.37 246.8 1607.95 250.32 1612.5 250.32C1617.05 250.32 1620.63 246.8 1620.63 242.32V210.64C1620.63 205.52 1619.01 201.36 1615.43 197.84L1581.27 161.36C1569.88 149.52 1565 138 1565 121.68V92.24C1565 70.48 1581.92 50 1612.17 50C1642.11 50 1660 70.48 1660 92.24V129.04C1660 130.32 1659.02 131.6 1657.4 131.6H1623.24C1621.61 131.6 1620.63 130.64 1620.63 129.04V93.52C1620.63 89.04 1617.05 85.52 1612.5 85.52C1607.95 85.52 1604.37 89.04 1604.37 93.52V122.64C1604.37 127.76 1605.99 131.92 1609.57 135.44L1644.06 172.24C1655.12 184.08 1660 195.28 1660 211.6V243.92C1660 265.68 1643.08 286.16 1613.15 286.16Z" fill="#090909"/>
<path d="M1501.48 286.16C1471.22 286.16 1453.33 265.68 1453.33 243.92V203.92C1453.33 202.32 1454.31 201.36 1455.93 201.36H1490.09C1491.39 201.36 1492.7 202.32 1492.7 203.92V242.32C1492.7 246.8 1496.27 250.32 1500.83 250.32C1505.38 250.32 1508.96 246.8 1508.96 242.32V210.64C1508.96 205.52 1507.34 201.36 1503.76 197.84L1469.6 161.36C1458.21 149.52 1453.33 138 1453.33 121.68V92.24C1453.33 70.48 1470.25 50 1500.5 50C1530.43 50 1548.33 70.48 1548.33 92.24V129.04C1548.33 130.32 1547.35 131.6 1545.73 131.6H1511.57C1509.94 131.6 1508.96 130.64 1508.96 129.04V93.52C1508.96 89.04 1505.38 85.52 1500.83 85.52C1496.27 85.52 1492.7 89.04 1492.7 93.52V122.64C1492.7 127.76 1494.32 131.92 1497.9 135.44L1532.39 172.24C1543.45 184.08 1548.33 195.28 1548.33 211.6V243.92C1548.33 265.68 1531.41 286.16 1501.48 286.16Z" fill="#090909"/>
<path d="M1351.01 281.68C1349.71 281.68 1348.41 280.72 1348.41 279.12V57.04C1348.41 55.44 1349.38 54.48 1351.01 54.48H1434.95C1436.57 54.48 1437.55 55.44 1437.55 57.04V87.44C1437.55 89.04 1436.57 90 1434.95 90H1387.77V149.52H1425.19C1426.81 149.52 1427.79 150.48 1427.79 152.08V182.48C1427.79 184.08 1426.81 185.04 1425.19 185.04H1387.77V246.16H1434.95C1436.57 246.16 1437.55 247.12 1437.55 248.72V279.12C1437.55 280.72 1436.57 281.68 1434.95 281.68H1351.01Z" fill="#090909"/>
<path d="M1279.42 286.16C1249.49 286.16 1232.57 265.68 1232.57 243.92V92.24C1232.57 70.48 1249.49 50 1279.42 50C1309.68 50 1327.57 70.48 1327.57 92.24V156.56C1327.57 158.16 1326.6 159.12 1324.97 159.12H1290.81C1289.18 159.12 1288.21 158.16 1288.21 156.56V93.52C1288.21 89.04 1284.63 85.52 1280.07 85.52C1275.19 85.52 1271.62 89.04 1271.62 93.52V242.32C1271.62 246.8 1275.19 250.32 1280.07 250.32C1284.63 250.32 1288.21 246.8 1288.21 242.32V179.28C1288.21 177.68 1289.18 176.72 1290.81 176.72H1324.97C1326.6 176.72 1327.57 177.68 1327.57 179.28V243.92C1327.57 265.68 1309.68 286.16 1279.42 286.16Z" fill="#090909"/>
<path d="M1164.58 286.16C1134.64 286.16 1117.73 265.68 1117.73 243.92V92.24C1117.73 70.48 1134.64 50 1164.58 50C1194.83 50 1212.73 70.48 1212.73 92.24V243.92C1212.73 265.68 1194.83 286.16 1164.58 286.16ZM1157.09 242.32C1157.09 246.8 1160.67 250.32 1165.23 250.32C1169.78 250.32 1173.36 246.8 1173.36 242.32V93.52C1173.36 89.04 1169.78 85.52 1165.23 85.52C1160.67 85.52 1157.09 89.04 1157.09 93.52V242.32Z" fill="#090909"/>
<path d="M1006.78 281.68C1005.16 281.68 1004.18 280.72 1004.18 279.12V57.3602C1004.18 55.7602 1005.48 54.8002 1006.78 54.8002L1051.35 54.4802C1081.29 54.1602 1099.18 74.9602 1099.18 96.7202V141.84C1099.18 154 1093.97 165.52 1083.89 171.92V172.88C1093.97 180.56 1099.18 191.12 1099.18 202.96V252.56C1099.18 262.8 1099.5 270.8 1101.46 278.8C1102.11 280.4 1101.13 281.68 1099.5 281.68H1065.67C1064.04 281.68 1063.07 280.72 1062.74 279.44C1060.46 269.52 1060.14 260.88 1060.14 247.44V199.76C1060.14 195.28 1056.23 191.76 1051.68 191.76H1043.55V279.12C1043.55 280.4 1042.57 281.68 1040.94 281.68H1006.78ZM1043.55 156.56H1052C1056.56 156.56 1060.14 153.04 1060.14 148.24V98.0002C1060.14 93.5202 1056.56 90.0002 1052 90.0002H1043.55V156.56Z" fill="#090909"/>
<path d="M892.57 281.68C890.943 281.68 889.967 280.72 889.967 279.12V57.04C889.967 55.44 890.943 54.48 892.57 54.48H937.141C967.073 54.48 984.967 74.96 984.967 96.72V151.12C984.967 172.88 967.073 193.36 937.141 193.36H929.333V279.12C929.333 280.72 928.357 281.68 926.73 281.68H892.57ZM929.333 157.52H937.467C942.021 157.52 945.6 154 945.6 149.52V98C945.6 93.52 942.021 90 937.467 90H929.333V157.52Z" fill="#090909"/>
<path d="M753.964 281.68C752.337 281.68 751.361 280.72 751.361 279.12L751.687 90H726.31C724.683 90 723.707 88.72 723.707 87.44L723.382 57.04C723.382 55.44 724.358 54.48 725.985 54.48H815.779C817.08 54.48 818.382 55.44 818.382 57.04V87.44C818.382 89.04 817.406 90 815.779 90H790.728V279.12C790.728 280.72 789.752 281.68 788.125 281.68H753.964Z" fill="#090909"/>
<path d="M662.457 286.16C632.525 286.16 615.607 265.68 615.607 243.92V92.24C615.607 70.48 632.525 50 662.457 50C692.713 50 710.607 70.48 710.607 92.24V156.56C710.607 158.16 709.631 159.12 708.004 159.12H673.844C672.217 159.12 671.241 158.16 671.241 156.56V93.52C671.241 89.04 667.662 85.52 663.107 85.52C658.227 85.52 654.648 89.04 654.648 93.52V242.32C654.648 246.8 658.227 250.32 663.107 250.32C667.662 250.32 671.241 246.8 671.241 242.32V179.28C671.241 177.68 672.217 176.72 673.844 176.72H708.004C709.631 176.72 710.607 177.68 710.607 179.28V243.92C710.607 265.68 692.713 286.16 662.457 286.16Z" fill="#090909"/>
<path d="M500.76 57.04C500.76 55.44 501.736 54.48 503.362 54.48H537.198C538.825 54.48 539.801 55.44 539.801 57.04V242.32C539.801 246.8 543.38 250.32 548.26 250.32C552.814 250.32 556.393 246.8 556.393 242.32V57.04C556.393 55.44 557.369 54.48 558.996 54.48H593.157C594.458 54.48 595.759 55.44 595.759 57.04V243.92C595.759 265.68 577.866 286.16 547.609 286.16C517.678 286.16 500.76 265.68 500.76 243.92V57.04Z" fill="#090909"/>
<path d="M388.227 281.68C386.925 281.68 385.624 280.72 385.624 279.12V57.04C385.624 55.44 386.6 54.48 388.227 54.48H432.799C462.73 54.48 480.624 74.96 480.624 96.72V239.44C480.624 261.2 462.73 281.68 432.799 281.68H388.227ZM424.99 245.84H433.124C437.679 245.84 441.257 242.32 441.257 237.84V98C441.257 93.52 437.679 90 433.124 90H424.99V245.84Z" fill="#090909"/>
<path d="M316.324 286.16C286.392 286.16 269.475 265.68 269.475 243.92V92.24C269.475 70.48 286.392 50 316.324 50C346.581 50 364.474 70.48 364.474 92.24V243.92C364.474 265.68 346.581 286.16 316.324 286.16ZM308.841 242.32C308.841 246.8 312.42 250.32 316.974 250.32C321.529 250.32 325.108 246.8 325.108 242.32V93.52C325.108 89.04 321.529 85.52 316.974 85.52C312.42 85.52 308.841 89.04 308.841 93.52V242.32Z" fill="#090909"/>
<path d="M158.531 281.68C156.905 281.68 155.929 280.72 155.929 279.12V57.3602C155.929 55.7602 157.23 54.8002 158.531 54.8002L203.103 54.4802C233.035 54.1602 250.928 74.9602 250.928 96.7202V141.84C250.928 154 245.723 165.52 235.637 171.92V172.88C245.723 180.56 250.928 191.12 250.928 202.96V252.56C250.928 262.8 251.254 270.8 253.206 278.8C253.857 280.4 252.88 281.68 251.254 281.68H217.418C215.792 281.68 214.816 280.72 214.49 279.44C212.213 269.52 211.887 260.88 211.887 247.44V199.76C211.887 195.28 207.983 191.76 203.429 191.76H195.295V279.12C195.295 280.4 194.319 281.68 192.692 281.68H158.531ZM195.295 156.56H203.754C208.309 156.56 211.887 153.04 211.887 148.24V98.0002C211.887 93.5202 208.309 90.0002 203.754 90.0002H195.295V156.56Z" fill="#090909"/>
<path d="M44.3176 281.68C42.6909 281.68 41.7148 280.72 41.7148 279.12V57.04C41.7148 55.44 42.6909 54.48 44.3176 54.48H88.8894C118.821 54.48 136.715 74.96 136.715 96.72V151.12C136.715 172.88 118.821 193.36 88.8894 193.36H81.0812V279.12C81.0812 280.72 80.1051 281.68 78.4784 281.68H44.3176ZM81.0812 157.52H89.2147C93.7695 157.52 97.3482 154 97.3482 149.52V98C97.3482 93.52 93.7695 90 89.2147 90H81.0812V157.52Z" fill="#090909"/>
<rect x="25" y="319" width="1649" height="1" fill="#666666"/>
<path d="M26.638 356V342.662H29.302V347.936H34.342V342.662H36.988V356H34.342V350.24H29.302V356H26.638ZM45.553 356.252C44.377 356.252 43.339 355.976 42.439 355.424C41.551 354.86 40.855 354.056 40.351 353.012C39.847 351.968 39.595 350.72 39.595 349.268C39.595 347.828 39.847 346.598 40.351 345.578C40.855 344.558 41.551 343.778 42.439 343.238C43.339 342.698 44.377 342.428 45.553 342.428C46.741 342.428 47.779 342.704 48.667 343.256C49.555 343.796 50.251 344.576 50.755 345.596C51.259 346.604 51.511 347.828 51.511 349.268C51.511 350.72 51.259 351.968 50.755 353.012C50.251 354.056 49.555 354.86 48.667 355.424C47.779 355.976 46.741 356.252 45.553 356.252ZM45.553 353.948C46.213 353.948 46.783 353.756 47.263 353.372C47.755 352.988 48.133 352.448 48.397 351.752C48.661 351.044 48.793 350.216 48.793 349.268C48.793 348.32 48.661 347.51 48.397 346.838C48.133 346.154 47.755 345.632 47.263 345.272C46.783 344.9 46.213 344.714 45.553 344.714C44.893 344.714 44.317 344.9 43.825 345.272C43.345 345.632 42.973 346.154 42.709 346.838C42.457 347.51 42.331 348.32 42.331 349.268C42.331 350.216 42.457 351.044 42.709 351.752C42.973 352.448 43.345 352.988 43.825 353.372C44.317 353.756 44.893 353.948 45.553 353.948ZM55.232 356L52.676 342.662H55.394L56.42 349.178C56.54 349.874 56.648 350.576 56.744 351.284C56.852 351.992 56.954 352.706 57.05 353.426H57.122C57.266 352.706 57.41 351.992 57.554 351.284C57.698 350.576 57.836 349.874 57.968 349.178L59.498 342.662H61.784L63.332 349.178C63.476 349.862 63.614 350.564 63.746 351.284C63.89 351.992 64.034 352.706 64.178 353.426H64.268C64.364 352.706 64.46 351.992 64.556 351.284C64.664 350.576 64.766 349.874 64.862 349.178L65.924 342.662H68.444L65.978 356H62.666L61.172 349.394C61.064 348.878 60.962 348.368 60.866 347.864C60.77 347.348 60.686 346.838 60.614 346.334H60.542C60.446 346.838 60.344 347.348 60.236 347.864C60.14 348.368 60.044 348.878 59.948 349.394L58.49 356H55.232ZM74.5208 356V342.662H77.1848V356H74.5208ZM83.1082 356V344.894H79.3642V342.662H89.5342V344.894H85.7722V356H83.1082ZM101.514 356.252C100.314 356.252 99.2283 355.988 98.2563 355.46C97.2963 354.932 96.5343 354.158 95.9703 353.138C95.4063 352.118 95.1243 350.87 95.1243 349.394C95.1243 348.29 95.2863 347.312 95.6103 346.46C95.9463 345.596 96.4083 344.864 96.9963 344.264C97.5843 343.664 98.2623 343.208 99.0303 342.896C99.7983 342.584 100.626 342.428 101.514 342.428C102.474 342.428 103.29 342.608 103.962 342.968C104.646 343.316 105.204 343.706 105.636 344.138L104.214 345.83C103.878 345.518 103.506 345.254 103.098 345.038C102.702 344.822 102.204 344.714 101.604 344.714C100.86 344.714 100.206 344.9 99.6423 345.272C99.0783 345.632 98.6403 346.154 98.3283 346.838C98.0163 347.522 97.8603 348.344 97.8603 349.304C97.8603 350.276 98.0043 351.11 98.2923 351.806C98.5923 352.49 99.0363 353.018 99.6243 353.39C100.212 353.762 100.938 353.948 101.802 353.948C102.126 353.948 102.438 353.906 102.738 353.822C103.038 353.726 103.278 353.6 103.458 353.444V350.816H101.1V348.638H105.852V354.65C105.396 355.094 104.79 355.472 104.034 355.784C103.278 356.096 102.438 356.252 101.514 356.252ZM108.693 356V342.662H116.865V344.894H111.357V347.972H116.019V350.204H111.357V353.768H117.063V356H108.693ZM122.413 356V344.894H118.669V342.662H128.839V344.894H125.077V356H122.413ZM134.274 356.252C133.386 356.252 132.516 356.084 131.664 355.748C130.812 355.412 130.062 354.932 129.414 354.308L130.944 352.472C131.412 352.916 131.946 353.276 132.546 353.552C133.158 353.816 133.752 353.948 134.328 353.948C135.024 353.948 135.552 353.81 135.912 353.534C136.272 353.258 136.452 352.886 136.452 352.418C136.452 352.082 136.362 351.818 136.182 351.626C136.014 351.422 135.78 351.242 135.48 351.086C135.18 350.93 134.832 350.774 134.436 350.618L132.672 349.844C132.228 349.664 131.796 349.424 131.376 349.124C130.968 348.812 130.626 348.422 130.35 347.954C130.086 347.486 129.954 346.928 129.954 346.28C129.954 345.548 130.152 344.894 130.548 344.318C130.944 343.742 131.49 343.286 132.186 342.95C132.882 342.602 133.674 342.428 134.562 342.428C135.354 342.428 136.116 342.578 136.848 342.878C137.58 343.178 138.216 343.604 138.756 344.156L137.406 345.812C136.986 345.464 136.548 345.194 136.092 345.002C135.636 344.81 135.126 344.714 134.562 344.714C133.986 344.714 133.524 344.84 133.176 345.092C132.84 345.332 132.672 345.674 132.672 346.118C132.672 346.43 132.768 346.688 132.96 346.892C133.152 347.096 133.404 347.276 133.716 347.432C134.028 347.576 134.37 347.726 134.742 347.882L136.488 348.584C137.028 348.8 137.496 349.07 137.892 349.394C138.3 349.718 138.612 350.108 138.828 350.564C139.056 351.02 139.17 351.572 139.17 352.22C139.17 352.94 138.972 353.606 138.576 354.218C138.192 354.83 137.634 355.322 136.902 355.694C136.182 356.066 135.306 356.252 134.274 356.252ZM145.607 356V342.662H148.559L150.827 348.926C150.971 349.322 151.109 349.742 151.241 350.186C151.373 350.618 151.505 351.044 151.637 351.464H151.727C151.871 351.044 152.009 350.618 152.141 350.186C152.273 349.742 152.399 349.322 152.519 348.926L154.751 342.662H157.703V356H155.273V350.438C155.273 350.006 155.291 349.532 155.327 349.016C155.363 348.5 155.405 347.984 155.453 347.468C155.513 346.94 155.567 346.472 155.615 346.064H155.543L154.445 349.196L152.393 354.794H150.863L148.793 349.196L147.731 346.064H147.659C147.707 346.472 147.755 346.94 147.803 347.468C147.851 347.984 147.893 348.5 147.929 349.016C147.977 349.532 148.001 350.006 148.001 350.438V356H145.607ZM159.242 356L163.508 342.662H166.658L170.924 356H168.116L166.226 349.052C166.022 348.356 165.824 347.636 165.632 346.892C165.452 346.136 165.26 345.404 165.056 344.696H164.984C164.816 345.416 164.63 346.148 164.426 346.892C164.234 347.636 164.042 348.356 163.85 349.052L161.942 356H159.242ZM161.888 352.58V350.51H168.224V352.58H161.888ZM172.484 356V342.662H176.138C177.506 342.662 178.676 342.902 179.648 343.382C180.632 343.862 181.388 344.588 181.916 345.56C182.456 346.532 182.726 347.768 182.726 349.268C182.726 350.768 182.462 352.016 181.934 353.012C181.406 354.008 180.662 354.758 179.702 355.262C178.742 355.754 177.602 356 176.282 356H172.484ZM175.148 353.84H175.958C176.798 353.84 177.518 353.69 178.118 353.39C178.73 353.078 179.198 352.586 179.522 351.914C179.846 351.23 180.008 350.348 180.008 349.268C180.008 348.188 179.846 347.324 179.522 346.676C179.198 346.016 178.73 345.542 178.118 345.254C177.518 344.954 176.798 344.804 175.958 344.804H175.148V353.84ZM185.333 356V342.662H193.505V344.894H187.997V347.972H192.659V350.204H187.997V353.768H193.703V356H185.333Z" fill="#090909"/>
<rect x="1568" y="338" width="106" height="22" rx="11" fill="#090909"/>
<rect x="1437" y="338" width="116" height="22" rx="11" fill="#090909"/>
<rect x="1312" y="338" width="100" height="22" rx="11" fill="#090909"/>
<path d="M1583.46 356V344.144H1587.34C1588.22 344.144 1589 344.261 1589.7 344.496C1590.4 344.731 1590.95 345.12 1591.36 345.664C1591.78 346.197 1591.98 346.933 1591.98 347.872C1591.98 348.768 1591.78 349.509 1591.36 350.096C1590.95 350.672 1590.41 351.099 1589.71 351.376C1589.03 351.653 1588.26 351.792 1587.41 351.792H1585.82V356H1583.46ZM1585.82 349.92H1587.25C1588.06 349.92 1588.66 349.749 1589.06 349.408C1589.46 349.067 1589.66 348.555 1589.66 347.872C1589.66 347.189 1589.45 346.715 1589.02 346.448C1588.61 346.171 1587.99 346.032 1587.17 346.032H1585.82V349.92ZM1594.13 356V344.144H1598.24C1599.08 344.144 1599.84 344.256 1600.51 344.48C1601.18 344.693 1601.72 345.067 1602.11 345.6C1602.51 346.123 1602.7 346.837 1602.7 347.744C1602.7 348.619 1602.51 349.339 1602.11 349.904C1601.72 350.459 1601.18 350.869 1600.51 351.136C1599.84 351.392 1599.08 351.52 1598.24 351.52H1596.5V356H1594.13ZM1596.5 349.648H1598.03C1598.8 349.648 1599.38 349.488 1599.78 349.168C1600.18 348.848 1600.38 348.373 1600.38 347.744C1600.38 347.104 1600.18 346.661 1599.78 346.416C1599.38 346.16 1598.8 346.032 1598.03 346.032H1596.5V349.648ZM1600.56 356L1597.81 350.912L1599.47 349.44L1603.22 356H1600.56ZM1609.74 356.224C1608.69 356.224 1607.77 355.979 1606.97 355.488C1606.18 354.987 1605.56 354.272 1605.11 353.344C1604.67 352.416 1604.44 351.307 1604.44 350.016C1604.44 348.736 1604.67 347.643 1605.11 346.736C1605.56 345.829 1606.18 345.136 1606.97 344.656C1607.77 344.176 1608.69 343.936 1609.74 343.936C1610.79 343.936 1611.72 344.181 1612.51 344.672C1613.3 345.152 1613.91 345.845 1614.36 346.752C1614.81 347.648 1615.03 348.736 1615.03 350.016C1615.03 351.307 1614.81 352.416 1614.36 353.344C1613.91 354.272 1613.3 354.987 1612.51 355.488C1611.72 355.979 1610.79 356.224 1609.74 356.224ZM1609.74 354.176C1610.32 354.176 1610.83 354.005 1611.26 353.664C1611.7 353.323 1612.03 352.843 1612.27 352.224C1612.5 351.595 1612.62 350.859 1612.62 350.016C1612.62 349.173 1612.5 348.453 1612.27 347.856C1612.03 347.248 1611.7 346.784 1611.26 346.464C1610.83 346.133 1610.32 345.968 1609.74 345.968C1609.15 345.968 1608.64 346.133 1608.2 346.464C1607.78 346.784 1607.44 347.248 1607.21 347.856C1606.99 348.453 1606.87 349.173 1606.87 350.016C1606.87 350.859 1606.99 351.595 1607.21 352.224C1607.44 352.843 1607.78 353.323 1608.2 353.664C1608.64 354.005 1609.15 354.176 1609.74 354.176ZM1617.35 356V344.144H1621.27C1622.08 344.144 1622.8 344.235 1623.44 344.416C1624.09 344.597 1624.61 344.901 1624.98 345.328C1625.36 345.755 1625.55 346.336 1625.55 347.072C1625.55 347.435 1625.49 347.792 1625.35 348.144C1625.22 348.485 1625.04 348.789 1624.8 349.056C1624.57 349.323 1624.28 349.52 1623.94 349.648V349.712C1624.58 349.861 1625.11 350.171 1625.52 350.64C1625.94 351.099 1626.15 351.723 1626.15 352.512C1626.15 353.301 1625.94 353.957 1625.54 354.48C1625.14 354.992 1624.6 355.376 1623.91 355.632C1623.22 355.877 1622.45 356 1621.57 356H1617.35ZM1619.71 348.976H1621.11C1621.85 348.976 1622.4 348.837 1622.74 348.56C1623.08 348.272 1623.25 347.893 1623.25 347.424C1623.25 346.901 1623.07 346.528 1622.72 346.304C1622.37 346.08 1621.84 345.968 1621.12 345.968H1619.71V348.976ZM1619.71 354.176H1621.36C1622.17 354.176 1622.79 354.032 1623.2 353.744C1623.63 353.445 1623.84 352.987 1623.84 352.368C1623.84 351.792 1623.63 351.376 1623.2 351.12C1622.79 350.853 1622.17 350.72 1621.36 350.72H1619.71V354.176ZM1628.24 356V344.144H1630.61V354.016H1635.42V356H1628.24ZM1637.49 356V344.144H1644.75V346.128H1639.86V348.864H1644V350.848H1639.86V354.016H1644.93V356H1637.49ZM1647.33 356V344.144H1649.96L1651.97 349.712C1652.1 350.064 1652.22 350.437 1652.34 350.832C1652.46 351.216 1652.57 351.595 1652.69 351.968H1652.77C1652.9 351.595 1653.02 351.216 1653.14 350.832C1653.26 350.437 1653.37 350.064 1653.48 349.712L1655.46 344.144H1658.08V356H1655.92V351.056C1655.92 350.672 1655.94 350.251 1655.97 349.792C1656 349.333 1656.04 348.875 1656.08 348.416C1656.14 347.947 1656.18 347.531 1656.23 347.168H1656.16L1655.19 349.952L1653.36 354.928H1652L1650.16 349.952L1649.22 347.168H1649.16C1649.2 347.531 1649.24 347.947 1649.28 348.416C1649.33 348.875 1649.36 349.333 1649.4 349.792C1649.44 350.251 1649.46 350.672 1649.46 351.056V356H1647.33Z" fill="#EBEAE4"/>
<path d="M1451.99 356.224C1451.2 356.224 1450.43 356.075 1449.67 355.776C1448.91 355.477 1448.25 355.051 1447.67 354.496L1449.03 352.864C1449.45 353.259 1449.92 353.579 1450.46 353.824C1451 354.059 1451.53 354.176 1452.04 354.176C1452.66 354.176 1453.13 354.053 1453.45 353.808C1453.77 353.563 1453.93 353.232 1453.93 352.816C1453.93 352.517 1453.85 352.283 1453.69 352.112C1453.54 351.931 1453.33 351.771 1453.06 351.632C1452.8 351.493 1452.49 351.355 1452.14 351.216L1450.57 350.528C1450.17 350.368 1449.79 350.155 1449.42 349.888C1449.05 349.611 1448.75 349.264 1448.5 348.848C1448.27 348.432 1448.15 347.936 1448.15 347.36C1448.15 346.709 1448.33 346.128 1448.68 345.616C1449.03 345.104 1449.52 344.699 1450.14 344.4C1450.75 344.091 1451.46 343.936 1452.25 343.936C1452.95 343.936 1453.63 344.069 1454.28 344.336C1454.93 344.603 1455.5 344.981 1455.98 345.472L1454.78 346.944C1454.4 346.635 1454.01 346.395 1453.61 346.224C1453.2 346.053 1452.75 345.968 1452.25 345.968C1451.74 345.968 1451.33 346.08 1451.02 346.304C1450.72 346.517 1450.57 346.821 1450.57 347.216C1450.57 347.493 1450.65 347.723 1450.82 347.904C1450.99 348.085 1451.22 348.245 1451.5 348.384C1451.77 348.512 1452.08 348.645 1452.41 348.784L1453.96 349.408C1454.44 349.6 1454.86 349.84 1455.21 350.128C1455.57 350.416 1455.85 350.763 1456.04 351.168C1456.24 351.573 1456.34 352.064 1456.34 352.64C1456.34 353.28 1456.17 353.872 1455.82 354.416C1455.47 354.96 1454.98 355.397 1454.33 355.728C1453.69 356.059 1452.91 356.224 1451.99 356.224ZM1460.34 356V346.128H1457.01V344.144H1466.05V346.128H1462.71V356H1460.34ZM1467.99 356V344.144H1472.1C1472.94 344.144 1473.7 344.256 1474.37 344.48C1475.04 344.693 1475.58 345.067 1475.97 345.6C1476.37 346.123 1476.56 346.837 1476.56 347.744C1476.56 348.619 1476.37 349.339 1475.97 349.904C1475.58 350.459 1475.04 350.869 1474.37 351.136C1473.7 351.392 1472.94 351.52 1472.1 351.52H1470.36V356H1467.99ZM1470.36 349.648H1471.89C1472.66 349.648 1473.24 349.488 1473.64 349.168C1474.04 348.848 1474.24 348.373 1474.24 347.744C1474.24 347.104 1474.04 346.661 1473.64 346.416C1473.24 346.16 1472.66 346.032 1471.89 346.032H1470.36V349.648ZM1474.42 356L1471.67 350.912L1473.33 349.44L1477.08 356H1474.42ZM1483.45 356.224C1482.72 356.224 1482.07 356.123 1481.5 355.92C1480.94 355.707 1480.45 355.376 1480.05 354.928C1479.65 354.48 1479.35 353.904 1479.15 353.2C1478.95 352.496 1478.85 351.653 1478.85 350.672V344.144H1481.2V350.88C1481.2 351.701 1481.29 352.352 1481.47 352.832C1481.65 353.312 1481.91 353.659 1482.24 353.872C1482.58 354.075 1482.98 354.176 1483.45 354.176C1483.92 354.176 1484.33 354.075 1484.67 353.872C1485.01 353.659 1485.27 353.312 1485.45 352.832C1485.65 352.352 1485.74 351.701 1485.74 350.88V344.144H1488.01V350.672C1488.01 351.653 1487.91 352.496 1487.71 353.2C1487.51 353.904 1487.21 354.48 1486.81 354.928C1486.42 355.376 1485.94 355.707 1485.37 355.92C1484.81 356.123 1484.17 356.224 1483.45 356.224ZM1495.68 356.224C1494.93 356.224 1494.23 356.096 1493.58 355.84C1492.93 355.573 1492.36 355.179 1491.85 354.656C1491.36 354.133 1490.97 353.493 1490.69 352.736C1490.41 351.979 1490.27 351.109 1490.27 350.128C1490.27 349.147 1490.41 348.277 1490.7 347.52C1490.99 346.752 1491.38 346.101 1491.89 345.568C1492.4 345.035 1492.98 344.629 1493.65 344.352C1494.32 344.075 1495.03 343.936 1495.77 343.936C1496.53 343.936 1497.2 344.091 1497.79 344.4C1498.39 344.699 1498.87 345.051 1499.25 345.456L1498.01 346.96C1497.72 346.661 1497.38 346.421 1497.02 346.24C1496.67 346.059 1496.27 345.968 1495.82 345.968C1495.22 345.968 1494.69 346.133 1494.21 346.464C1493.74 346.784 1493.37 347.248 1493.1 347.856C1492.84 348.464 1492.7 349.195 1492.7 350.048C1492.7 350.912 1492.82 351.653 1493.07 352.272C1493.33 352.88 1493.68 353.349 1494.14 353.68C1494.61 354.011 1495.16 354.176 1495.77 354.176C1496.29 354.176 1496.74 354.069 1497.13 353.856C1497.54 353.632 1497.9 353.349 1498.21 353.008L1499.47 354.48C1498.98 355.056 1498.42 355.493 1497.79 355.792C1497.16 356.08 1496.46 356.224 1495.68 356.224ZM1503.37 356V346.128H1500.04V344.144H1509.08V346.128H1505.74V356H1503.37ZM1515.58 356.224C1514.84 356.224 1514.19 356.123 1513.63 355.92C1513.06 355.707 1512.58 355.376 1512.17 354.928C1511.78 354.48 1511.48 353.904 1511.27 353.2C1511.07 352.496 1510.97 351.653 1510.97 350.672V344.144H1513.32V350.88C1513.32 351.701 1513.41 352.352 1513.59 352.832C1513.78 353.312 1514.03 353.659 1514.36 353.872C1514.7 354.075 1515.11 354.176 1515.58 354.176C1516.05 354.176 1516.45 354.075 1516.79 353.872C1517.14 353.659 1517.4 353.312 1517.58 352.832C1517.77 352.352 1517.87 351.701 1517.87 350.88V344.144H1520.14V350.672C1520.14 351.653 1520.04 352.496 1519.83 353.2C1519.63 353.904 1519.33 354.48 1518.94 354.928C1518.54 355.376 1518.06 355.707 1517.5 355.92C1516.93 356.123 1516.29 356.224 1515.58 356.224ZM1522.99 356V344.144H1527.1C1527.94 344.144 1528.7 344.256 1529.37 344.48C1530.04 344.693 1530.58 345.067 1530.97 345.6C1531.37 346.123 1531.56 346.837 1531.56 347.744C1531.56 348.619 1531.37 349.339 1530.97 349.904C1530.58 350.459 1530.04 350.869 1529.37 351.136C1528.7 351.392 1527.94 351.52 1527.1 351.52H1525.36V356H1522.99ZM1525.36 349.648H1526.89C1527.66 349.648 1528.24 349.488 1528.64 349.168C1529.04 348.848 1529.24 348.373 1529.24 347.744C1529.24 347.104 1529.04 346.661 1528.64 346.416C1528.24 346.16 1527.66 346.032 1526.89 346.032H1525.36V349.648ZM1529.42 356L1526.67 350.912L1528.33 349.44L1532.08 356H1529.42ZM1533.89 356V344.144H1541.16V346.128H1536.26V348.864H1540.41V350.848H1536.26V354.016H1541.33V356H1533.89Z" fill="#EBEAE4"/>
<path d="M1328.16 356.224C1327.11 356.224 1326.19 355.979 1325.39 355.488C1324.6 354.987 1323.98 354.272 1323.54 353.344C1323.09 352.416 1322.86 351.307 1322.86 350.016C1322.86 348.736 1323.09 347.643 1323.54 346.736C1323.98 345.829 1324.6 345.136 1325.39 344.656C1326.19 344.176 1327.11 343.936 1328.16 343.936C1329.22 343.936 1330.14 344.181 1330.93 344.672C1331.72 345.152 1332.34 345.845 1332.78 346.752C1333.23 347.648 1333.46 348.736 1333.46 350.016C1333.46 351.307 1333.23 352.416 1332.78 353.344C1332.34 354.272 1331.72 354.987 1330.93 355.488C1330.14 355.979 1329.22 356.224 1328.16 356.224ZM1328.16 354.176C1328.75 354.176 1329.25 354.005 1329.68 353.664C1330.12 353.323 1330.45 352.843 1330.69 352.224C1330.92 351.595 1331.04 350.859 1331.04 350.016C1331.04 349.173 1330.92 348.453 1330.69 347.856C1330.45 347.248 1330.12 346.784 1329.68 346.464C1329.25 346.133 1328.75 345.968 1328.16 345.968C1327.57 345.968 1327.06 346.133 1326.62 346.464C1326.2 346.784 1325.87 347.248 1325.63 347.856C1325.41 348.453 1325.3 349.173 1325.3 350.016C1325.3 350.859 1325.41 351.595 1325.63 352.224C1325.87 352.843 1326.2 353.323 1326.62 353.664C1327.06 354.005 1327.57 354.176 1328.16 354.176ZM1340.33 356.224C1339.59 356.224 1338.94 356.123 1338.38 355.92C1337.81 355.707 1337.33 355.376 1336.92 354.928C1336.53 354.48 1336.23 353.904 1336.02 353.2C1335.82 352.496 1335.72 351.653 1335.72 350.672V344.144H1338.07V350.88C1338.07 351.701 1338.16 352.352 1338.34 352.832C1338.53 353.312 1338.78 353.659 1339.11 353.872C1339.45 354.075 1339.86 354.176 1340.33 354.176C1340.8 354.176 1341.2 354.075 1341.54 353.872C1341.89 353.659 1342.15 353.312 1342.33 352.832C1342.52 352.352 1342.62 351.701 1342.62 350.88V344.144H1344.89V350.672C1344.89 351.653 1344.79 352.496 1344.58 353.2C1344.38 353.904 1344.08 354.48 1343.69 354.928C1343.29 355.376 1342.81 355.707 1342.25 355.92C1341.68 356.123 1341.04 356.224 1340.33 356.224ZM1350.09 356V346.128H1346.76V344.144H1355.8V346.128H1352.46V356H1350.09ZM1361.98 356.224C1361.23 356.224 1360.53 356.096 1359.88 355.84C1359.23 355.573 1358.65 355.179 1358.15 354.656C1357.66 354.133 1357.27 353.493 1356.98 352.736C1356.71 351.979 1356.57 351.109 1356.57 350.128C1356.57 349.147 1356.71 348.277 1357 347.52C1357.29 346.752 1357.68 346.101 1358.18 345.568C1358.7 345.035 1359.28 344.629 1359.94 344.352C1360.62 344.075 1361.32 343.936 1362.07 343.936C1362.83 343.936 1363.5 344.091 1364.09 344.4C1364.68 344.699 1365.17 345.051 1365.54 345.456L1364.31 346.96C1364.01 346.661 1363.68 346.421 1363.32 346.24C1362.97 346.059 1362.57 345.968 1362.12 345.968C1361.52 345.968 1360.98 346.133 1360.5 346.464C1360.03 346.784 1359.67 347.248 1359.4 347.856C1359.13 348.464 1359 349.195 1359 350.048C1359 350.912 1359.12 351.653 1359.37 352.272C1359.62 352.88 1359.98 353.349 1360.44 353.68C1360.91 354.011 1361.45 354.176 1362.07 354.176C1362.58 354.176 1363.04 354.069 1363.43 353.856C1363.84 353.632 1364.19 353.349 1364.5 353.008L1365.77 354.48C1365.28 355.056 1364.72 355.493 1364.09 355.792C1363.46 356.08 1362.75 356.224 1361.98 356.224ZM1371.64 356.224C1370.6 356.224 1369.68 355.979 1368.88 355.488C1368.09 354.987 1367.47 354.272 1367.02 353.344C1366.57 352.416 1366.35 351.307 1366.35 350.016C1366.35 348.736 1366.57 347.643 1367.02 346.736C1367.47 345.829 1368.09 345.136 1368.88 344.656C1369.68 344.176 1370.6 343.936 1371.64 343.936C1372.7 343.936 1373.62 344.181 1374.41 344.672C1375.2 345.152 1375.82 345.845 1376.27 346.752C1376.72 347.648 1376.94 348.736 1376.94 350.016C1376.94 351.307 1376.72 352.416 1376.27 353.344C1375.82 354.272 1375.2 354.987 1374.41 355.488C1373.62 355.979 1372.7 356.224 1371.64 356.224ZM1371.64 354.176C1372.23 354.176 1372.74 354.005 1373.16 353.664C1373.6 353.323 1373.94 352.843 1374.17 352.224C1374.41 351.595 1374.52 350.859 1374.52 350.016C1374.52 349.173 1374.41 348.453 1374.17 347.856C1373.94 347.248 1373.6 346.784 1373.16 346.464C1372.74 346.133 1372.23 345.968 1371.64 345.968C1371.06 345.968 1370.55 346.133 1370.11 346.464C1369.68 346.784 1369.35 347.248 1369.12 347.856C1368.89 348.453 1368.78 349.173 1368.78 350.016C1368.78 350.859 1368.89 351.595 1369.12 352.224C1369.35 352.843 1369.68 353.323 1370.11 353.664C1370.55 354.005 1371.06 354.176 1371.64 354.176ZM1379.25 356V344.144H1381.88L1383.89 349.712C1384.02 350.064 1384.14 350.437 1384.26 350.832C1384.38 351.216 1384.5 351.595 1384.61 351.968H1384.69C1384.82 351.595 1384.94 351.216 1385.06 350.832C1385.18 350.437 1385.29 350.064 1385.4 349.712L1387.38 344.144H1390V356H1387.84V351.056C1387.84 350.672 1387.86 350.251 1387.89 349.792C1387.92 349.333 1387.96 348.875 1388 348.416C1388.06 347.947 1388.11 347.531 1388.15 347.168H1388.08L1387.11 349.952L1385.28 354.928H1383.92L1382.08 349.952L1381.14 347.168H1381.08C1381.12 347.531 1381.16 347.947 1381.2 348.416C1381.25 348.875 1381.28 349.333 1381.32 349.792C1381.36 350.251 1381.38 350.672 1381.38 351.056V356H1379.25ZM1392.89 356V344.144H1400.16V346.128H1395.26V348.864H1399.41V350.848H1395.26V354.016H1400.33V356H1392.89Z" fill="#EBEAE4"/>
</svg>
