<svg width="20" height="26" viewBox="0 0 20 26" fill="none" xmlns="http://www.w3.org/2000/svg">
<path d="M5.03965 25.8298C1.81965 25.8298 -0.000351507 23.5898 -0.000351507 21.2098V4.61984C-0.000351507 2.23984 1.81965 -0.000157535 5.03965 -0.000157535C8.29465 -0.000157535 10.2196 2.23984 10.2196 4.61984V21.2098C10.2196 23.5898 8.29465 25.8298 5.03965 25.8298ZM4.19965 21.0348C4.19965 21.5248 4.58465 21.9098 5.10965 21.9098C5.59965 21.9098 5.98465 21.5248 5.98465 21.0348V4.75984C5.98465 4.26984 5.59965 3.88484 5.10965 3.88484C4.58465 3.88484 4.19965 4.26984 4.19965 4.75984V21.0348ZM15.6799 25.3398C15.5049 25.3398 15.3999 25.2348 15.3999 25.0598V6.92984H12.0749C11.9349 6.92984 11.7949 6.82484 11.7949 6.64984V3.49984C11.7949 3.32484 11.8999 3.21984 12.0749 3.21984C14.1049 3.14984 15.0849 2.51984 15.9949 0.699842C16.0649 0.524842 16.2049 0.489842 16.3449 0.489842H19.3549C19.5299 0.489842 19.6349 0.594843 19.6349 0.769843V25.0598C19.6349 25.2348 19.5299 25.3398 19.3549 25.3398H15.6799Z" fill="white"/>
</svg>
