<svg width="23" height="26" viewBox="0 0 23 26" fill="none" xmlns="http://www.w3.org/2000/svg">
<path d="M5.03965 25.8298C1.81965 25.8298 -0.000351507 23.5898 -0.000351507 21.2098V4.61984C-0.000351507 2.23984 1.81965 -0.000157535 5.03965 -0.000157535C8.29465 -0.000157535 10.2196 2.23984 10.2196 4.61984V21.2098C10.2196 23.5898 8.29465 25.8298 5.03965 25.8298ZM4.19965 21.0348C4.19965 21.5248 4.58465 21.9098 5.10965 21.9098C5.59965 21.9098 5.98465 21.5248 5.98465 21.0348V4.75984C5.98465 4.26984 5.59965 3.88484 5.10965 3.88484C4.58465 3.88484 4.19965 4.26984 4.19965 4.75984V21.0348ZM12.3216 25.3398C12.1466 25.3398 12.0416 25.2348 12.0416 25.0598V21.6648C12.0416 21.5248 12.0766 21.3848 12.1116 21.2448L17.5716 9.83484C17.8866 9.09984 18.0266 8.50484 18.0266 7.69984V4.75984C18.0266 4.26984 17.6416 3.88484 17.1516 3.88484C16.6616 3.88484 16.2766 4.26984 16.2766 4.75984V8.92484C16.2766 9.09984 16.1716 9.20484 15.9966 9.20484H12.3216C12.1466 9.20484 12.0416 9.09984 12.0416 8.92484V4.61984C12.0416 2.23984 13.8616 -0.000157535 17.0816 -0.000157535C20.3366 -0.000157535 22.2616 2.23984 22.2616 4.61984V6.71984C22.2616 8.50484 21.9466 9.37984 21.2466 10.8498L16.3116 21.2798V21.4548H22.1216C22.2966 21.4548 22.4016 21.5598 22.4016 21.7348V25.0598C22.4016 25.2348 22.2966 25.3398 22.1216 25.3398H12.3216Z" fill="white"/>
</svg>
