<svg width="23" height="26" viewBox="0 0 23 26" fill="none" xmlns="http://www.w3.org/2000/svg">
<path d="M5.03965 25.8298C1.81965 25.8298 -0.000351507 23.5898 -0.000351507 21.2098V4.61984C-0.000351507 2.23984 1.81965 -0.000157535 5.03965 -0.000157535C8.29465 -0.000157535 10.2196 2.23984 10.2196 4.61984V21.2098C10.2196 23.5898 8.29465 25.8298 5.03965 25.8298ZM4.19965 21.0348C4.19965 21.5248 4.58465 21.9098 5.10965 21.9098C5.59965 21.9098 5.98465 21.5248 5.98465 21.0348V4.75984C5.98465 4.26984 5.59965 3.88484 5.10965 3.88484C4.58465 3.88484 4.19965 4.26984 4.19965 4.75984V21.0348ZM17.2549 25.8298C13.9999 25.8298 12.1799 23.5898 12.1799 21.2098V17.6398C12.1799 17.4648 12.2849 17.3598 12.4599 17.3598H16.1349C16.2749 17.3598 16.4149 17.4648 16.4149 17.6398V21.0348C16.4149 21.5248 16.7999 21.9098 17.3249 21.9098C17.8149 21.9098 18.1999 21.5248 18.1999 21.0348V15.2598C18.1999 14.7698 17.8149 14.3848 17.3599 14.3848H15.6099C15.4349 14.3848 15.3299 14.2798 15.3299 14.1048V10.8148C15.3299 10.6398 15.4349 10.5348 15.6099 10.5348H17.3599C17.8149 10.5348 18.1999 10.1498 18.1999 9.65984V4.75984C18.1999 4.26984 17.8149 3.88484 17.2899 3.88484C16.7999 3.88484 16.4149 4.26984 16.4149 4.75984V7.59484C16.4149 7.76984 16.3099 7.87484 16.1349 7.87484H12.4599C12.3199 7.87484 12.1799 7.76984 12.1799 7.59484V4.61984C12.1799 2.23984 13.9999 -0.000157535 17.2549 -0.000157535C20.5099 -0.000157535 22.4349 2.23984 22.4349 4.61984V8.95984C22.4349 10.3598 22.1199 11.6898 20.6849 12.4248V12.4948C22.1199 13.3348 22.4349 14.5598 22.4349 15.9598V21.2098C22.4349 23.5898 20.5099 25.8298 17.2549 25.8298Z" fill="white"/>
</svg>
