<svg width="55" height="55" viewBox="0 0 55 55" fill="none" xmlns="http://www.w3.org/2000/svg">
<path d="M34.5886 24.8749L38.2477 22.7611C38.6855 22.5082 39.0491 22.1444 39.3018 21.7064C39.5545 21.2685 39.6876 20.7717 39.6875 20.266V9.50875C39.6876 9.00314 39.5547 8.50641 39.302 8.06844C39.0494 7.63047 38.686 7.26669 38.2482 7.01366L28.9636 1.65013L28.9387 1.63581C28.5011 1.38307 28.0047 1.25 27.4994 1.25C26.9941 1.25 26.4977 1.38307 26.0602 1.63581L16.7517 7.01419C16.314 7.26722 15.9505 7.631 15.6979 8.06897C15.4452 8.50694 15.3123 9.00367 15.3124 9.50928V20.2666M20.4113 30.125L16.7522 32.2388C16.3144 32.4918 15.9508 32.8555 15.6981 33.2935C15.4454 33.7314 15.3124 34.2282 15.3124 34.7339V45.4912C15.3123 45.9968 15.4452 46.4935 15.6979 46.9315C15.9505 47.3695 16.314 47.7332 16.7517 47.9863L26.0363 53.3498L26.0612 53.3641C26.4988 53.6169 26.9952 53.75 27.5005 53.75C28.0058 53.75 28.5022 53.6169 28.9397 53.3641L38.2482 47.9857C38.686 47.7327 39.0494 47.3689 39.302 46.931C39.5547 46.493 39.6876 45.9962 39.6875 45.4906V34.7333M34.3685 30.6563L38.4513 31.7488C38.9397 31.8794 39.4539 31.8793 39.9423 31.7483C40.4306 31.6173 40.8759 31.3602 41.2333 31.0026L48.8395 23.3964C49.1971 23.039 49.4544 22.5938 49.5855 22.1055C49.7165 21.6171 49.7168 21.1029 49.5862 20.6144L46.8138 10.2565L46.8063 10.2289C46.6756 9.74076 46.4186 9.29565 46.0612 8.93836C45.7038 8.58106 45.2587 8.32419 44.7705 8.19359L34.3849 5.41478C33.8965 5.28403 33.3822 5.28414 32.8937 5.41511C32.4053 5.54609 31.9599 5.80331 31.6024 6.16092L23.9967 13.7671M20.6314 24.3436L16.5486 23.2511C16.0602 23.1205 15.546 23.1206 15.0577 23.2516C14.5693 23.3826 14.1241 23.6398 13.7666 23.9973L6.16039 31.6035C5.80287 31.961 5.5457 32.4062 5.41473 32.8945C5.28376 33.3829 5.28359 33.8971 5.41425 34.3855L8.18564 44.7434L8.19359 44.771C8.32428 45.2591 8.58118 45.7042 8.93847 46.0615C9.29575 46.4187 9.74082 46.6756 10.2289 46.8063L20.615 49.5851C21.1034 49.7158 21.6176 49.7157 22.1059 49.5847C22.5943 49.4538 23.0395 49.1966 23.397 48.839L31.0032 41.2328M30.125 34.5886L32.2388 38.2477C32.4918 38.6855 32.8555 39.0491 33.2935 39.3018C33.7314 39.5545 34.2282 39.6876 34.7339 39.6875H45.4912C45.9968 39.6876 46.4935 39.5547 46.9315 39.302C47.3695 39.0494 47.7332 38.686 47.9863 38.2482L53.3498 28.9636L53.3641 28.9387C53.6169 28.5011 53.75 28.0047 53.75 27.4994C53.75 26.9941 53.6169 26.4977 53.3641 26.0602L47.9857 16.7517C47.7327 16.314 47.3689 15.9505 46.931 15.6979C46.493 15.4452 45.9962 15.3123 45.4906 15.3124H34.7333M24.8749 20.4113L22.7611 16.7522C22.5082 16.3144 22.1444 15.9508 21.7064 15.6981C21.2685 15.4454 20.7717 15.3124 20.266 15.3124H9.50875C9.00314 15.3123 8.50641 15.4452 8.06844 15.6979C7.63047 15.9505 7.26669 16.314 7.01366 16.7517L1.65013 26.0363L1.63581 26.0612C1.38307 26.4988 1.25 26.9952 1.25 27.5005C1.25 28.0058 1.38307 28.5022 1.63581 28.9397L7.01419 38.2482C7.26722 38.686 7.631 39.0494 8.06897 39.302C8.50694 39.5547 9.00367 39.6876 9.50928 39.6875H20.2666M24.3436 34.3685L23.2511 38.4513C23.1205 38.9397 23.1206 39.4539 23.2516 39.9423C23.3826 40.4306 23.6398 40.8759 23.9973 41.2333L31.6035 48.8395C31.9609 49.1971 32.4061 49.4544 32.8945 49.5855C33.3828 49.7165 33.897 49.7168 34.3855 49.5862L44.7434 46.8143L44.771 46.8063C45.2591 46.6757 45.7042 46.4188 46.0615 46.0615C46.4188 45.7042 46.6757 45.2591 46.8063 44.771L49.5851 34.3855C49.7159 33.897 49.7158 33.3827 49.5848 32.8943C49.4538 32.4058 49.1966 31.9605 48.839 31.6029L41.2328 23.9967M30.6563 20.6314L31.7488 16.5486C31.8794 16.0602 31.8793 15.546 31.7483 15.0577C31.6173 14.5693 31.3602 14.1241 31.0026 13.7666L23.3964 6.16039C23.039 5.80277 22.5938 5.54551 22.1055 5.41445C21.6171 5.28338 21.1029 5.28313 20.6144 5.41372L10.2565 8.18617L10.2289 8.19359C9.7407 8.32437 9.29554 8.58143 8.93824 8.93892C8.58095 9.2964 8.32411 9.74169 8.19359 10.23L5.41478 20.6155C5.28413 21.1039 5.28429 21.6181 5.41526 22.1064C5.54623 22.5948 5.8034 23.04 6.16092 23.3975L13.7671 31.0037" stroke="white" stroke-width="2.5" stroke-linecap="round"/>
</svg>
