<svg width="30" height="30" viewBox="0 0 30 30" fill="none" xmlns="http://www.w3.org/2000/svg">
<path d="M14.4867 14.7791L12.4566 15.952C12.2137 16.0924 12.012 16.2942 11.8718 16.5372C11.7316 16.7803 11.6578 17.0559 11.6579 17.3365V23.3047C11.6579 23.5852 11.7317 23.8608 11.8719 24.1038C12.0121 24.3467 12.2137 24.5485 12.4566 24.6889L17.6075 27.6654L17.6213 27.6733C17.8641 27.8135 18.1395 27.8874 18.4199 27.8874C18.7003 27.8874 18.9757 27.8135 19.2185 27.6733L24.3835 24.6889C24.6263 24.5485 24.828 24.3466 24.9681 24.1036C25.1083 23.8606 25.182 23.585 25.1819 23.3044V16.0875M12.6981 15.8194L16.893 13.3981C17.136 13.2577 17.3376 13.0558 17.4778 12.8128C17.618 12.5698 17.6918 12.2942 17.6918 12.0136V6.04536C17.6918 5.76485 17.618 5.48927 17.4778 5.24631C17.3376 5.00334 17.1359 4.80155 16.893 4.66119L11.7422 1.6847L11.728 1.67678C11.4853 1.53655 11.2098 1.46272 10.9295 1.46272C10.6491 1.46272 10.3737 1.53655 10.1309 1.67678L4.96645 4.66119C4.72353 4.80151 4.52181 5.00329 4.38156 5.24626C4.24131 5.48922 4.16747 5.76482 4.16746 6.04536V13.2623M14.6154 14.8815L14.0093 17.1467C13.9369 17.4176 13.937 17.7029 14.0097 17.9738C14.0823 18.2447 14.225 18.4918 14.4234 18.6901L18.6438 22.9104C18.8421 23.1088 19.0891 23.2515 19.36 23.3242C19.6309 23.3968 19.9162 23.397 20.1871 23.3245L25.9339 21.7868L25.9492 21.7825C26.2201 21.71 26.4671 21.5674 26.6653 21.3691C26.8636 21.1708 27.0061 20.9238 27.0785 20.6529L28.6205 14.8908C28.693 14.6198 28.6929 14.3345 28.6202 14.0635C28.5475 13.7926 28.4048 13.5455 28.2065 13.3472L23.1537 8.29441M14.0865 16.8819L15.3406 12.2034C15.4131 11.9324 15.4129 11.6472 15.3403 11.3762C15.2676 11.1053 15.1249 10.8583 14.9265 10.66L10.7059 6.43962C10.5076 6.24126 10.2606 6.09858 9.98964 6.0259C9.71873 5.95322 9.43347 5.9531 9.1625 6.02556L3.41542 7.56358L3.40015 7.56754C3.12928 7.64005 2.88229 7.78263 2.68403 7.98094C2.48578 8.17924 2.34326 8.42627 2.27082 8.69716L0.72912 14.4592C0.656611 14.7302 0.656701 15.0156 0.729382 15.2865C0.802064 15.5575 0.944776 15.8046 1.14318 16.0029L6.19591 21.0557M14.7789 14.8634L15.9518 16.8935C16.0922 17.1365 16.294 17.3381 16.537 17.4783C16.78 17.6186 17.0557 17.6923 17.3362 17.6923H23.3045C23.585 17.6923 23.8606 17.6185 24.1035 17.4783C24.3465 17.3381 24.5483 17.1364 24.6886 16.8935L27.6651 11.7424L27.673 11.7285C27.8133 11.4857 27.8872 11.2102 27.8872 10.9298C27.8872 10.6494 27.8133 10.3739 27.673 10.1311L24.6886 4.96665C24.5483 4.72373 24.3464 4.52204 24.1034 4.38184C23.8604 4.24164 23.5848 4.16787 23.3042 4.16794H16.0873M15.8191 16.6517L13.3979 12.4568C13.2575 12.2139 13.0556 12.0122 12.8126 11.872C12.5696 11.7318 12.294 11.658 12.0134 11.6581H6.04516C5.76465 11.6581 5.48907 11.7319 5.24611 11.8721C5.00315 12.0123 4.80135 12.2139 4.661 12.4568L1.68451 17.6077L1.6766 17.6218C1.53633 17.8646 1.46249 18.14 1.46249 18.4204C1.46249 18.7008 1.53633 18.9762 1.6766 19.219L4.661 24.3834C4.8013 24.6264 5.00307 24.8281 5.24604 24.9684C5.48901 25.1086 5.76462 25.1824 6.04516 25.1824H13.2621M14.8813 14.7344L17.1465 15.3405C17.4174 15.413 17.7027 15.4129 17.9736 15.3402C18.2445 15.2675 18.4915 15.1248 18.6899 14.9265L22.9102 10.7061C23.1086 10.5078 23.2513 10.2608 23.3239 9.98985C23.3966 9.71894 23.3967 9.43367 23.3243 9.1627L21.7863 3.41561L21.7823 3.40034C21.7098 3.12947 21.5672 2.88247 21.3689 2.68422C21.1706 2.48597 20.9236 2.34345 20.6527 2.27101L14.8903 0.729305C14.6194 0.656848 14.3341 0.656966 14.0632 0.729646C13.7923 0.802326 13.5453 0.945009 13.3469 1.14337L8.29421 6.19611M16.8814 15.2636L12.2029 14.0095C11.9319 13.937 11.6466 13.9371 11.3756 14.0098C11.1046 14.0825 10.8576 14.2252 10.6592 14.4236L6.43971 18.644C6.24133 18.8423 6.09863 19.0893 6.02595 19.3602C5.95326 19.6311 5.95316 19.9164 6.02565 20.1874L7.56339 25.9342L7.56763 25.9494C7.64011 26.2203 7.78265 26.4673 7.9809 26.6655C8.17915 26.8638 8.42612 27.0063 8.69696 27.0788L14.4593 28.6208C14.7303 28.6932 15.0156 28.6931 15.2866 28.6205C15.5576 28.5478 15.8046 28.4051 16.003 28.2067L21.0554 23.154" stroke="white" stroke-width="1.35" stroke-linecap="round"/>
</svg>
