<svg width="30" height="30" viewBox="0 0 30 30" fill="none" xmlns="http://www.w3.org/2000/svg">
<path d="M10.535 0.850968L8.39771 2.0858C8.14207 2.23356 7.92981 2.446 7.78226 2.70177C7.63471 2.95755 7.55708 3.24765 7.55715 3.54293V9.82511C7.55712 10.1203 7.63479 10.4104 7.78233 10.6661C7.92987 10.9218 8.14211 11.1342 8.39771 11.282L13.8195 14.4146L13.8342 14.423C14.0898 14.5707 14.3797 14.6485 14.6748 14.6485C14.9699 14.6485 15.2598 14.5707 15.5154 14.423L20.9519 11.2817C21.2075 11.1339 21.4198 10.9215 21.5673 10.6657C21.7149 10.4099 21.7925 10.1198 21.7925 9.82454V1.99388M18.8148 28.4991L20.9519 27.2646C21.2075 27.1168 21.4198 26.9044 21.5673 26.6486C21.7149 26.3928 21.7925 26.1027 21.7925 25.8075V19.5253C21.7925 19.23 21.7148 18.94 21.5673 18.6843C21.4197 18.4286 21.2075 18.2162 20.9519 18.0684L15.5301 14.9358L15.5154 14.9273C15.2598 14.7797 14.9699 14.702 14.6748 14.702C14.3797 14.702 14.0898 14.7797 13.8342 14.9273L8.39771 18.0687C8.14208 18.2165 7.92984 18.4289 7.7823 18.6847C7.63475 18.9405 7.5571 19.2306 7.55715 19.5258V27.3565M28.4989 10.5353L27.2643 8.39824C27.1166 8.14261 26.9041 7.93037 26.6483 7.78282C26.3926 7.63528 26.1025 7.55763 25.8072 7.55768H19.525C19.2297 7.5576 18.9396 7.63524 18.6839 7.78279C18.4281 7.93033 18.2157 8.14259 18.0679 8.39824L14.9353 13.8201L14.9268 13.8345C14.7791 14.09 14.7013 14.38 14.7013 14.6752C14.7013 14.9704 14.7791 15.2603 14.9268 15.5159L18.0682 20.9521C18.216 21.2078 18.4285 21.4201 18.6843 21.5677C18.9401 21.7152 19.2303 21.7928 19.5256 21.7927H27.3563M0.850441 18.8151L2.08499 20.9521C2.23275 21.2078 2.44519 21.42 2.70096 21.5676C2.95674 21.7151 3.24684 21.7928 3.54212 21.7927H9.82458C10.1199 21.7928 10.41 21.7151 10.6657 21.5676C10.9215 21.42 11.1339 21.2078 11.2817 20.9521L14.4143 15.5303L14.4228 15.5159C14.5705 15.2603 14.6482 14.9704 14.6482 14.6752C14.6482 14.38 14.5705 14.0901 14.4228 13.8345L11.2811 8.39824C11.1334 8.14256 10.921 7.93026 10.6652 7.78266C10.4094 7.63507 10.1193 7.55738 9.82402 7.55739H1.99307M21.5224 1.97267L19.1381 1.3346C18.8529 1.25828 18.5525 1.25837 18.2673 1.33487C17.9821 1.41138 17.722 1.5616 17.5133 1.77044L13.0715 6.21254C12.8626 6.42131 12.7124 6.68137 12.6359 6.96659C12.5594 7.2518 12.5593 7.55213 12.6356 7.83739L14.2542 13.8862L14.2588 13.9024C14.3351 14.1874 14.4851 14.4474 14.6938 14.656C14.9025 14.8647 15.1624 15.0148 15.4475 15.0911L21.513 16.7142C21.7983 16.7905 22.0986 16.7903 22.3837 16.7138C22.6689 16.6372 22.9289 16.487 23.1376 16.2781L28.6748 10.7409M7.82697 27.378L10.2112 28.0161C10.4965 28.0924 10.7968 28.0922 11.082 28.0157C11.3672 27.9392 11.6273 27.789 11.8361 27.5802L16.2782 23.1378C16.487 22.9291 16.6371 22.6691 16.7136 22.3839C16.7902 22.0988 16.7903 21.7985 16.714 21.5133L15.0954 15.4644L15.0908 15.4483C15.0146 15.1632 14.8646 14.9032 14.6559 14.6944C14.4472 14.4857 14.1872 14.3356 13.9021 14.2593L7.8363 12.6364C7.55105 12.5602 7.25077 12.5604 6.96562 12.6369C6.68046 12.7135 6.42046 12.8637 6.21173 13.0725L0.674805 18.6092M27.3772 21.5229L28.0155 19.1386C28.0918 18.8534 28.0916 18.5531 28.0151 18.268C27.9385 17.9828 27.7883 17.7228 27.5794 17.5141L23.1373 13.072C22.9286 12.8631 22.6685 12.7128 22.3833 12.6363C22.0981 12.5597 21.7977 12.5596 21.5125 12.6359L15.4642 14.2548L15.4478 14.259C15.1626 14.3353 14.9027 14.4854 14.694 14.6941C14.4853 14.9028 14.3353 15.1629 14.259 15.448L12.6359 21.5133C12.5596 21.7985 12.5597 22.0989 12.6362 22.3841C12.7127 22.6693 12.8629 22.9293 13.0717 23.1381L18.6089 28.675M1.97242 7.82749L1.33436 10.2117C1.25805 10.4969 1.25813 10.7972 1.33458 11.0823C1.41103 11.3675 1.56117 11.6275 1.76992 11.8363L6.2123 16.2784C6.42107 16.4872 6.68113 16.6375 6.96634 16.714C7.25156 16.7905 7.55188 16.7906 7.83715 16.7142L13.886 15.0956L13.9021 15.0911C14.1872 15.0148 14.4472 14.8648 14.6558 14.6561C14.8645 14.4474 15.0145 14.1874 15.0908 13.9024L16.7137 7.83711C16.79 7.55185 16.7899 7.25152 16.7134 6.9663C16.6369 6.68109 16.4867 6.42103 16.2779 6.21226L10.7407 0.675049" stroke="white" stroke-width="1.35" stroke-linecap="round"/>
</svg>
